<?xml version="1.0" encoding="UTF-8"?>
<svg xmlns="http://www.w3.org/2000/svg" xmlns:xlink="http://www.w3.org/1999/xlink" width="421" height="321" viewBox="0 0 421 321">
<rect x="-42.1" y="-32.1" width="505.2" height="385.2" fill="rgb(100%, 100%, 100%)" fill-opacity="1"/>
<path fill="none" stroke-width="1" stroke-linecap="butt" stroke-linejoin="miter" stroke="rgb(0%, 0%, 0%)" stroke-opacity="1" stroke-miterlimit="1.45" d="M 328.839844 392.691406 C 328.839844 402.25 320.410156 410 310 410 C 299.589844 410 291.160156 402.25 291.160156 392.691406 C 291.160156 383.128906 299.589844 375.378906 310 375.378906 C 320.410156 375.378906 328.839844 383.128906 328.839844 392.691406 Z M 328.839844 392.691406 " transform="matrix(1, 0, 0, 1, -35, -311)"/>
<path fill-rule="nonzero" fill="rgb(0%, 0%, 0%)" fill-opacity="1" d="M 268.941406 86.890625 L 266.25 82.609375 L 263.039062 82.609375 L 263.039062 86.890625 L 261.640625 86.890625 L 261.640625 76.578125 L 266.5 76.578125 C 267.660156 76.578125 268.558594 76.839844 269.191406 77.359375 C 269.828125 77.871094 270.140625 78.589844 270.140625 79.519531 C 270.140625 80.289062 269.921875 80.929688 269.46875 81.449219 C 269.019531 81.96875 268.398438 82.300781 267.609375 82.441406 L 270.550781 86.890625 Z M 268.738281 79.53125 C 268.738281 78.941406 268.53125 78.480469 268.109375 78.171875 C 267.710938 77.851562 267.121094 77.691406 266.359375 77.691406 L 263.039062 77.691406 L 263.039062 81.5 L 266.410156 81.5 C 267.148438 81.5 267.71875 81.328125 268.128906 80.980469 C 268.539062 80.640625 268.738281 80.160156 268.738281 79.53125 Z M 279.789062 86.890625 L 278.621094 83.871094 L 273.910156 83.871094 L 272.730469 86.890625 L 271.269531 86.890625 L 275.480469 76.578125 L 277.070312 76.578125 L 281.210938 86.890625 Z M 276.261719 77.621094 L 276.199219 77.828125 C 276.070312 78.230469 275.890625 78.75 275.648438 79.390625 L 274.339844 82.78125 L 278.199219 82.78125 L 276.871094 79.371094 C 276.730469 79.039062 276.601562 78.660156 276.460938 78.230469 Z M 282.390625 86.890625 L 282.390625 85.769531 L 285.011719 85.769531 L 285.011719 77.828125 L 282.691406 79.5 L 282.691406 78.25 L 285.121094 76.578125 L 286.339844 76.578125 L 286.339844 85.769531 L 288.859375 85.769531 L 288.859375 86.890625 Z M 282.390625 86.890625 "/>
<path fill="none" stroke-width="1" stroke-linecap="butt" stroke-linejoin="miter" stroke="rgb(0%, 0%, 0%)" stroke-opacity="1" stroke-miterlimit="1.45" d="M 424.121094 392.691406 C 424.121094 402.25 415.691406 410 405.28125 410 C 394.871094 410 386.441406 402.25 386.441406 392.691406 C 386.441406 383.128906 394.871094 375.378906 405.28125 375.378906 C 415.691406 375.378906 424.121094 383.128906 424.121094 392.691406 Z M 424.121094 392.691406 " transform="matrix(1, 0, 0, 1, -35, -311)"/>
<path fill-rule="nonzero" fill="rgb(0%, 0%, 0%)" fill-opacity="1" d="M 362.980469 86.890625 L 360.289062 82.609375 L 357.070312 82.609375 L 357.070312 86.890625 L 355.679688 86.890625 L 355.679688 76.578125 L 360.539062 76.578125 C 361.699219 76.578125 362.589844 76.839844 363.230469 77.359375 C 363.859375 77.871094 364.179688 78.589844 364.179688 79.519531 C 364.179688 80.289062 363.960938 80.929688 363.511719 81.449219 C 363.058594 81.96875 362.441406 82.300781 361.648438 82.441406 L 364.589844 86.890625 Z M 362.769531 79.53125 C 362.769531 78.941406 362.558594 78.480469 362.148438 78.171875 C 361.738281 77.851562 361.160156 77.691406 360.398438 77.691406 L 357.070312 77.691406 L 357.070312 81.5 L 360.449219 81.5 C 361.179688 81.5 361.761719 81.328125 362.160156 80.980469 C 362.570312 80.640625 362.769531 80.160156 362.769531 79.53125 Z M 373.820312 86.890625 L 372.648438 83.871094 L 367.949219 83.871094 L 366.761719 86.890625 L 365.308594 86.890625 L 369.511719 76.578125 L 371.109375 76.578125 L 375.25 86.890625 Z M 370.289062 77.621094 L 370.230469 77.828125 C 370.109375 78.230469 369.921875 78.75 369.679688 79.390625 L 368.371094 82.78125 L 372.230469 82.78125 L 370.898438 79.371094 C 370.769531 79.039062 370.628906 78.660156 370.5 78.230469 Z M 383.199219 86.890625 L 377.691406 78.089844 L 377.71875 78.808594 L 377.75 80.03125 L 377.75 86.890625 L 376.519531 86.890625 L 376.519531 76.578125 L 378.140625 76.578125 L 383.71875 85.421875 C 383.660156 84.460938 383.628906 83.769531 383.628906 83.339844 L 383.628906 76.578125 L 384.890625 76.578125 L 384.890625 86.890625 Z M 383.199219 86.890625 "/>
<path fill="none" stroke-width="1" stroke-linecap="butt" stroke-linejoin="miter" stroke="rgb(0%, 0%, 0%)" stroke-opacity="1" stroke-miterlimit="1.45" d="M 329.480469 561.921875 C 329.480469 571.96875 320.761719 580.121094 310 580.121094 C 299.238281 580.121094 290.519531 571.96875 290.519531 561.921875 C 290.519531 551.871094 299.238281 543.71875 310 543.71875 C 320.761719 543.71875 329.480469 551.871094 329.480469 561.921875 Z M 329.480469 561.921875 " transform="matrix(1, 0, 0, 1, -35, -311)"/>
<path fill-rule="nonzero" fill="rgb(0%, 0%, 0%)" fill-opacity="1" d="M 268.941406 256.121094 L 266.25 251.839844 L 263.039062 251.839844 L 263.039062 256.121094 L 261.640625 256.121094 L 261.640625 245.808594 L 266.5 245.808594 C 267.660156 245.808594 268.558594 246.070312 269.191406 246.589844 C 269.828125 247.101562 270.140625 247.820312 270.140625 248.75 C 270.140625 249.519531 269.921875 250.160156 269.46875 250.679688 C 269.019531 251.199219 268.398438 251.53125 267.609375 251.671875 L 270.550781 256.121094 Z M 268.738281 248.761719 C 268.738281 248.171875 268.53125 247.710938 268.109375 247.398438 C 267.710938 247.078125 267.121094 246.921875 266.359375 246.921875 L 263.039062 246.921875 L 263.039062 250.730469 L 266.410156 250.730469 C 267.148438 250.730469 267.71875 250.558594 268.128906 250.210938 C 268.539062 249.871094 268.738281 249.390625 268.738281 248.761719 Z M 280.460938 253.210938 C 280.460938 254.128906 280.121094 254.839844 279.449219 255.351562 C 278.78125 255.859375 277.851562 256.121094 276.660156 256.121094 L 272.480469 256.121094 L 272.480469 245.808594 L 276.230469 245.808594 C 278.640625 245.808594 279.851562 246.640625 279.851562 248.308594 C 279.851562 248.910156 279.679688 249.421875 279.339844 249.839844 C 279 250.261719 278.519531 250.539062 277.898438 250.679688 C 278.710938 250.78125 279.339844 251.050781 279.789062 251.511719 C 280.238281 251.960938 280.460938 252.53125 280.460938 253.210938 Z M 279.039062 253.101562 C 279.039062 251.890625 278.191406 251.28125 276.480469 251.28125 L 273.871094 251.28125 L 273.871094 255 L 276.589844 255 C 277.441406 255 278.058594 254.839844 278.449219 254.53125 C 278.839844 254.199219 279.039062 253.730469 279.039062 253.101562 Z M 278.449219 248.480469 C 278.449219 247.921875 278.25 247.519531 277.871094 247.28125 C 277.488281 247.039062 276.949219 246.921875 276.230469 246.921875 L 273.871094 246.921875 L 273.871094 250.179688 L 276.230469 250.179688 C 276.96875 250.179688 277.519531 250.039062 277.878906 249.761719 C 278.261719 249.480469 278.449219 249.050781 278.449219 248.480469 Z M 282.390625 256.121094 L 282.390625 255 L 285.011719 255 L 285.011719 247.058594 L 282.691406 248.730469 L 282.691406 247.480469 L 285.121094 245.808594 L 286.339844 245.808594 L 286.339844 255 L 288.859375 255 L 288.859375 256.121094 Z M 282.390625 256.121094 "/>
<path fill="none" stroke-width="1" stroke-linecap="butt" stroke-linejoin="miter" stroke="rgb(0%, 0%, 0%)" stroke-opacity="1" stroke-miterlimit="1.45" d="M 424.761719 561.921875 C 424.761719 571.96875 416.039062 580.121094 405.28125 580.121094 C 394.519531 580.121094 385.800781 571.96875 385.800781 561.921875 C 385.800781 551.871094 394.519531 543.71875 405.28125 543.71875 C 416.039062 543.71875 424.761719 551.871094 424.761719 561.921875 Z M 424.761719 561.921875 " transform="matrix(1, 0, 0, 1, -35, -311)"/>
<path fill-rule="nonzero" fill="rgb(0%, 0%, 0%)" fill-opacity="1" d="M 362.140625 256.121094 L 359.460938 251.839844 L 356.238281 251.839844 L 356.238281 256.121094 L 354.851562 256.121094 L 354.851562 245.808594 L 359.710938 245.808594 C 360.859375 245.808594 361.761719 246.070312 362.390625 246.589844 C 363.03125 247.101562 363.351562 247.820312 363.351562 248.75 C 363.351562 249.519531 363.121094 250.160156 362.679688 250.679688 C 362.230469 251.199219 361.609375 251.53125 360.820312 251.671875 L 363.75 256.121094 Z M 361.941406 248.761719 C 361.941406 248.171875 361.730469 247.710938 361.320312 247.398438 C 360.910156 247.078125 360.328125 246.921875 359.570312 246.921875 L 356.238281 246.921875 L 356.238281 250.730469 L 359.609375 250.730469 C 360.351562 250.730469 360.929688 250.558594 361.328125 250.210938 C 361.738281 249.871094 361.941406 249.390625 361.941406 248.761719 Z M 373.671875 253.210938 C 373.671875 254.128906 373.328125 254.839844 372.648438 255.351562 C 371.980469 255.859375 371.058594 256.121094 369.871094 256.121094 L 365.679688 256.121094 L 365.679688 245.808594 L 369.429688 245.808594 C 371.851562 245.808594 373.058594 246.640625 373.058594 248.308594 C 373.058594 248.910156 372.878906 249.421875 372.539062 249.839844 C 372.210938 250.261719 371.730469 250.539062 371.101562 250.679688 C 371.921875 250.78125 372.550781 251.050781 372.988281 251.511719 C 373.441406 251.960938 373.671875 252.53125 373.671875 253.210938 Z M 372.238281 253.101562 C 372.238281 251.890625 371.390625 251.28125 369.679688 251.28125 L 367.070312 251.28125 L 367.070312 255 L 369.789062 255 C 370.640625 255 371.261719 254.839844 371.648438 254.53125 C 372.050781 254.199219 372.238281 253.730469 372.238281 253.101562 Z M 371.648438 248.480469 C 371.648438 247.921875 371.460938 247.519531 371.070312 247.28125 C 370.699219 247.039062 370.148438 246.921875 369.429688 246.921875 L 367.070312 246.921875 L 367.070312 250.179688 L 369.429688 250.179688 C 370.171875 250.179688 370.71875 250.039062 371.089844 249.761719 C 371.460938 249.480469 371.648438 249.050781 371.648438 248.480469 Z M 384.449219 256.121094 L 384.449219 249.230469 C 384.449219 248.46875 384.480469 247.738281 384.53125 247.039062 C 384.289062 247.921875 384.070312 248.601562 383.871094 249.089844 L 381.21875 256.121094 L 380.230469 256.121094 L 377.53125 249.089844 L 377.121094 247.839844 L 376.871094 247.039062 L 376.898438 247.851562 L 376.921875 249.230469 L 376.921875 256.121094 L 375.691406 256.121094 L 375.691406 245.808594 L 377.511719 245.808594 L 380.261719 252.949219 C 380.371094 253.238281 380.460938 253.550781 380.539062 253.890625 C 380.640625 254.210938 380.699219 254.441406 380.730469 254.589844 C 380.761719 254.398438 380.839844 254.109375 380.96875 253.710938 C 381.089844 253.308594 381.179688 253.050781 381.230469 252.949219 L 383.921875 245.808594 L 385.71875 245.808594 L 385.71875 256.121094 Z M 384.449219 256.121094 "/>
<path fill="none" stroke-width="1" stroke-linecap="butt" stroke-linejoin="miter" stroke="rgb(0%, 0%, 0%)" stroke-opacity="1" stroke-dasharray="6 2" stroke-miterlimit="1.45" d="M 281.558594 570.890625 L 338.441406 570.890625 L 338.441406 601.359375 L 281.558594 601.359375 Z M 281.558594 570.890625 " transform="matrix(1, 0, 0, 1, -35, -311)"/>
<path fill-rule="nonzero" fill="rgb(0%, 0%, 0%)" fill-opacity="1" d="M 255.871094 307.039062 C 255.871094 307.949219 255.53125 308.671875 254.851562 309.179688 C 254.179688 309.691406 253.261719 309.941406 252.070312 309.941406 L 247.878906 309.941406 L 247.878906 299.628906 L 251.628906 299.628906 C 254.050781 299.628906 255.261719 300.460938 255.261719 302.128906 C 255.261719 302.730469 255.089844 303.25 254.738281 303.660156 C 254.410156 304.078125 253.929688 304.359375 253.300781 304.511719 C 254.121094 304.601562 254.75 304.878906 255.191406 305.328125 C 255.640625 305.78125 255.871094 306.351562 255.871094 307.039062 Z M 254.441406 306.929688 C 254.441406 305.710938 253.589844 305.101562 251.878906 305.101562 L 249.269531 305.101562 L 249.269531 308.820312 L 251.988281 308.820312 C 252.851562 308.820312 253.46875 308.660156 253.851562 308.351562 C 254.25 308.03125 254.441406 307.550781 254.441406 306.929688 Z M 253.851562 302.300781 C 253.851562 301.738281 253.660156 301.339844 253.269531 301.101562 C 252.898438 300.859375 252.351562 300.738281 251.628906 300.738281 L 249.269531 300.738281 L 249.269531 304.011719 L 251.628906 304.011719 C 252.371094 304.011719 252.921875 303.859375 253.289062 303.578125 C 253.660156 303.300781 253.851562 302.878906 253.851562 302.300781 Z M 259.679688 310.078125 C 258.890625 310.078125 258.289062 309.878906 257.890625 309.460938 C 257.488281 309.039062 257.289062 308.460938 257.289062 307.71875 C 257.289062 306.910156 257.558594 306.289062 258.089844 305.851562 C 258.628906 305.398438 259.511719 305.160156 260.71875 305.128906 L 262.5 305.109375 L 262.5 304.679688 C 262.5 304.03125 262.359375 303.570312 262.070312 303.300781 C 261.800781 303.019531 261.378906 302.878906 260.789062 302.878906 C 260.199219 302.878906 259.769531 302.980469 259.5 303.179688 C 259.238281 303.378906 259.070312 303.691406 259.011719 304.128906 L 257.640625 304.011719 C 257.871094 302.578125 258.929688 301.859375 260.820312 301.859375 C 261.808594 301.859375 262.558594 302.089844 263.058594 302.550781 C 263.570312 303.011719 263.820312 303.671875 263.820312 304.539062 L 263.820312 307.941406 C 263.820312 308.339844 263.878906 308.640625 263.980469 308.828125 C 264.089844 309.03125 264.28125 309.128906 264.558594 309.128906 C 264.679688 309.128906 264.828125 309.109375 265 309.078125 L 265 309.898438 C 264.660156 309.980469 264.320312 310.019531 263.980469 310.019531 C 263.488281 310.019531 263.128906 309.890625 262.898438 309.628906 C 262.679688 309.371094 262.558594 308.96875 262.53125 308.429688 L 262.5 308.429688 C 262.148438 309.03125 261.761719 309.460938 261.308594 309.710938 C 260.859375 309.960938 260.320312 310.078125 259.679688 310.078125 Z M 259.980469 309.101562 C 260.46875 309.101562 260.898438 308.988281 261.28125 308.769531 C 261.648438 308.550781 261.949219 308.25 262.171875 307.859375 C 262.390625 307.480469 262.5 307.078125 262.5 306.679688 L 262.5 306.039062 L 261.039062 306.070312 C 260.429688 306.070312 259.960938 306.128906 259.640625 306.261719 C 259.308594 306.371094 259.070312 306.550781 258.898438 306.800781 C 258.738281 307.039062 258.648438 307.359375 258.648438 307.761719 C 258.648438 308.179688 258.769531 308.519531 259 308.761719 C 259.230469 308.980469 259.550781 309.101562 259.980469 309.101562 Z M 271.949219 307.761719 C 271.949219 308.511719 271.671875 309.078125 271.101562 309.488281 C 270.539062 309.890625 269.761719 310.078125 268.75 310.078125 C 267.761719 310.078125 266.988281 309.921875 266.449219 309.601562 C 265.921875 309.28125 265.570312 308.769531 265.421875 308.078125 L 266.570312 307.851562 C 266.691406 308.28125 266.921875 308.589844 267.28125 308.789062 C 267.628906 308.980469 268.121094 309.078125 268.75 309.078125 C 269.410156 309.078125 269.898438 308.980469 270.199219 308.789062 C 270.511719 308.578125 270.671875 308.269531 270.671875 307.851562 C 270.671875 307.539062 270.558594 307.289062 270.339844 307.101562 C 270.128906 306.898438 269.789062 306.738281 269.308594 306.609375 L 268.371094 306.359375 C 267.609375 306.171875 267.070312 305.96875 266.75 305.789062 C 266.429688 305.601562 266.179688 305.371094 266 305.101562 C 265.820312 304.828125 265.730469 304.5 265.730469 304.109375 C 265.730469 303.390625 265.980469 302.828125 266.5 302.460938 C 267.019531 302.078125 267.769531 301.898438 268.75 301.898438 C 269.621094 301.898438 270.308594 302.050781 270.820312 302.359375 C 271.339844 302.671875 271.671875 303.160156 271.808594 303.828125 L 270.621094 303.96875 C 270.550781 303.628906 270.351562 303.359375 270.03125 303.179688 C 269.710938 302.988281 269.289062 302.898438 268.75 302.898438 C 268.148438 302.898438 267.710938 302.980469 267.429688 303.160156 C 267.148438 303.339844 267.011719 303.609375 267.011719 303.96875 C 267.011719 304.199219 267.070312 304.390625 267.179688 304.539062 C 267.300781 304.679688 267.46875 304.808594 267.699219 304.910156 C 267.929688 305.019531 268.410156 305.160156 269.148438 305.328125 C 269.851562 305.511719 270.351562 305.679688 270.648438 305.828125 C 270.960938 305.980469 271.210938 306.140625 271.390625 306.320312 C 271.570312 306.5 271.710938 306.699219 271.808594 306.941406 C 271.898438 307.179688 271.949219 307.449219 271.949219 307.761719 Z M 274.511719 306.261719 C 274.511719 307.160156 274.699219 307.859375 275.070312 308.359375 C 275.460938 308.851562 276.011719 309.101562 276.730469 309.101562 C 277.300781 309.101562 277.761719 308.980469 278.101562 308.761719 C 278.449219 308.53125 278.679688 308.230469 278.808594 307.878906 L 279.960938 308.210938 C 279.480469 309.460938 278.410156 310.078125 276.730469 310.078125 C 275.550781 310.078125 274.660156 309.730469 274.039062 309.039062 C 273.441406 308.339844 273.140625 307.300781 273.140625 305.929688 C 273.140625 304.609375 273.441406 303.609375 274.039062 302.910156 C 274.660156 302.210938 275.539062 301.859375 276.679688 301.859375 C 279.011719 301.859375 280.171875 303.269531 280.171875 306.078125 L 280.171875 306.261719 Z M 278.808594 305.261719 C 278.730469 304.410156 278.519531 303.800781 278.171875 303.429688 C 277.820312 303.039062 277.320312 302.851562 276.648438 302.851562 C 276.019531 302.851562 275.511719 303.058594 275.140625 303.488281 C 274.761719 303.921875 274.558594 304.511719 274.53125 305.261719 Z M 294.21875 307.039062 C 294.21875 307.949219 293.890625 308.671875 293.210938 309.179688 C 292.539062 309.691406 291.609375 309.941406 290.429688 309.941406 L 286.238281 309.941406 L 286.238281 299.628906 L 289.988281 299.628906 C 292.410156 299.628906 293.609375 300.460938 293.609375 302.128906 C 293.609375 302.730469 293.441406 303.25 293.101562 303.660156 C 292.769531 304.078125 292.289062 304.359375 291.660156 304.511719 C 292.46875 304.601562 293.101562 304.878906 293.550781 305.328125 C 294 305.78125 294.21875 306.351562 294.21875 307.039062 Z M 292.800781 306.929688 C 292.800781 305.710938 291.949219 305.101562 290.238281 305.101562 L 287.628906 305.101562 L 287.628906 308.820312 L 290.351562 308.820312 C 291.199219 308.820312 291.820312 308.660156 292.210938 308.351562 C 292.601562 308.03125 292.800781 307.550781 292.800781 306.929688 Z M 292.210938 302.300781 C 292.210938 301.738281 292.019531 301.339844 291.628906 301.101562 C 291.25 300.859375 290.710938 300.738281 289.988281 300.738281 L 287.628906 300.738281 L 287.628906 304.011719 L 289.988281 304.011719 C 290.730469 304.011719 291.28125 303.859375 291.648438 303.578125 C 292.019531 303.300781 292.210938 302.878906 292.210938 302.300781 Z M 296.148438 309.941406 L 296.148438 308.820312 L 298.78125 308.820312 L 298.78125 300.878906 L 296.449219 302.550781 L 296.449219 301.300781 L 298.878906 299.628906 L 300.101562 299.628906 L 300.101562 308.820312 L 302.621094 308.820312 L 302.621094 309.941406 Z M 296.148438 309.941406 "/>
<path fill="none" stroke-width="1" stroke-linecap="butt" stroke-linejoin="miter" stroke="rgb(0%, 0%, 0%)" stroke-opacity="1" stroke-dasharray="6 2" stroke-miterlimit="1.45" d="M 376.839844 570.890625 L 433.71875 570.890625 L 433.71875 601.359375 L 376.839844 601.359375 Z M 376.839844 570.890625 " transform="matrix(1, 0, 0, 1, -35, -311)"/>
<path fill-rule="nonzero" fill="rgb(0%, 0%, 0%)" fill-opacity="1" d="M 349.070312 307.039062 C 349.070312 307.949219 348.730469 308.671875 348.050781 309.179688 C 347.390625 309.691406 346.460938 309.941406 345.269531 309.941406 L 341.089844 309.941406 L 341.089844 299.628906 L 344.839844 299.628906 C 347.25 299.628906 348.460938 300.460938 348.460938 302.128906 C 348.460938 302.730469 348.289062 303.25 347.949219 303.660156 C 347.609375 304.078125 347.128906 304.359375 346.511719 304.511719 C 347.320312 304.601562 347.949219 304.878906 348.398438 305.328125 C 348.851562 305.78125 349.070312 306.351562 349.070312 307.039062 Z M 347.648438 306.929688 C 347.648438 305.710938 346.789062 305.101562 345.089844 305.101562 L 342.480469 305.101562 L 342.480469 308.820312 L 345.199219 308.820312 C 346.050781 308.820312 346.671875 308.660156 347.050781 308.351562 C 347.449219 308.03125 347.648438 307.550781 347.648438 306.929688 Z M 347.050781 302.300781 C 347.050781 301.738281 346.859375 301.339844 346.480469 301.101562 C 346.101562 300.859375 345.550781 300.738281 344.839844 300.738281 L 342.480469 300.738281 L 342.480469 304.011719 L 344.839844 304.011719 C 345.578125 304.011719 346.128906 303.859375 346.488281 303.578125 C 346.871094 303.300781 347.050781 302.878906 347.050781 302.300781 Z M 352.890625 310.078125 C 352.101562 310.078125 351.5 309.878906 351.089844 309.460938 C 350.691406 309.039062 350.5 308.460938 350.5 307.71875 C 350.5 306.910156 350.761719 306.289062 351.289062 305.851562 C 351.839844 305.398438 352.710938 305.160156 353.921875 305.128906 L 355.699219 305.109375 L 355.699219 304.679688 C 355.699219 304.03125 355.558594 303.570312 355.28125 303.300781 C 355.011719 303.019531 354.578125 302.878906 354 302.878906 C 353.398438 302.878906 352.96875 302.980469 352.699219 303.179688 C 352.441406 303.378906 352.28125 303.691406 352.21875 304.128906 L 350.839844 304.011719 C 351.070312 302.578125 352.128906 301.859375 354.03125 301.859375 C 355.019531 301.859375 355.761719 302.089844 356.261719 302.550781 C 356.769531 303.011719 357.03125 303.671875 357.03125 304.539062 L 357.03125 307.941406 C 357.03125 308.339844 357.078125 308.640625 357.179688 308.828125 C 357.289062 309.03125 357.480469 309.128906 357.761719 309.128906 C 357.890625 309.128906 358.03125 309.109375 358.199219 309.078125 L 358.199219 309.898438 C 357.871094 309.980469 357.53125 310.019531 357.179688 310.019531 C 356.691406 310.019531 356.339844 309.890625 356.109375 309.628906 C 355.890625 309.371094 355.761719 308.96875 355.730469 308.429688 L 355.699219 308.429688 C 355.359375 309.03125 354.960938 309.460938 354.511719 309.710938 C 354.058594 309.960938 353.519531 310.078125 352.890625 310.078125 Z M 353.179688 309.101562 C 353.671875 309.101562 354.109375 308.988281 354.480469 308.769531 C 354.859375 308.550781 355.148438 308.25 355.371094 307.859375 C 355.589844 307.480469 355.699219 307.078125 355.699219 306.679688 L 355.699219 306.039062 L 354.25 306.070312 C 353.628906 306.070312 353.160156 306.128906 352.839844 306.261719 C 352.519531 306.371094 352.269531 306.550781 352.109375 306.800781 C 351.941406 307.039062 351.859375 307.359375 351.859375 307.761719 C 351.859375 308.179688 351.96875 308.519531 352.199219 308.761719 C 352.429688 308.980469 352.761719 309.101562 353.179688 309.101562 Z M 365.148438 307.761719 C 365.148438 308.511719 364.871094 309.078125 364.308594 309.488281 C 363.75 309.890625 362.960938 310.078125 361.949219 310.078125 C 360.960938 310.078125 360.191406 309.921875 359.648438 309.601562 C 359.121094 309.28125 358.78125 308.769531 358.621094 308.078125 L 359.78125 307.851562 C 359.890625 308.28125 360.128906 308.589844 360.480469 308.789062 C 360.828125 308.980469 361.320312 309.078125 361.949219 309.078125 C 362.621094 309.078125 363.101562 308.980469 363.398438 308.789062 C 363.710938 308.578125 363.871094 308.269531 363.871094 307.851562 C 363.871094 307.539062 363.761719 307.289062 363.539062 307.101562 C 363.328125 306.898438 362.988281 306.738281 362.511719 306.609375 L 361.570312 306.359375 C 360.808594 306.171875 360.269531 305.96875 359.949219 305.789062 C 359.640625 305.601562 359.390625 305.371094 359.199219 305.101562 C 359.019531 304.828125 358.929688 304.5 358.929688 304.109375 C 358.929688 303.390625 359.191406 302.828125 359.699219 302.460938 C 360.21875 302.078125 360.96875 301.898438 361.949219 301.898438 C 362.820312 301.898438 363.519531 302.050781 364.03125 302.359375 C 364.550781 302.671875 364.878906 303.160156 365.011719 303.828125 L 363.820312 303.96875 C 363.75 303.628906 363.550781 303.359375 363.230469 303.179688 C 362.921875 302.988281 362.488281 302.898438 361.949219 302.898438 C 361.351562 302.898438 360.921875 302.980469 360.640625 303.160156 C 360.351562 303.339844 360.210938 303.609375 360.210938 303.96875 C 360.210938 304.199219 360.269531 304.390625 360.390625 304.539062 C 360.5 304.679688 360.671875 304.808594 360.898438 304.910156 C 361.128906 305.019531 361.621094 305.160156 362.351562 305.328125 C 363.050781 305.511719 363.550781 305.679688 363.851562 305.828125 C 364.171875 305.980469 364.410156 306.140625 364.589844 306.320312 C 364.78125 306.5 364.921875 306.699219 365.011719 306.941406 C 365.101562 307.179688 365.148438 307.449219 365.148438 307.761719 Z M 367.710938 306.261719 C 367.710938 307.160156 367.898438 307.859375 368.28125 308.359375 C 368.660156 308.851562 369.210938 309.101562 369.929688 309.101562 C 370.511719 309.101562 370.960938 308.980469 371.308594 308.761719 C 371.648438 308.53125 371.890625 308.230469 372.011719 307.878906 L 373.171875 308.210938 C 372.691406 309.460938 371.609375 310.078125 369.929688 310.078125 C 368.761719 310.078125 367.859375 309.730469 367.25 309.039062 C 366.640625 308.339844 366.339844 307.300781 366.339844 305.929688 C 366.339844 304.609375 366.640625 303.609375 367.25 302.910156 C 367.859375 302.210938 368.738281 301.859375 369.890625 301.859375 C 372.210938 301.859375 373.371094 303.269531 373.371094 306.078125 L 373.371094 306.261719 Z M 372.011719 305.261719 C 371.941406 304.410156 371.71875 303.800781 371.371094 303.429688 C 371.03125 303.039062 370.519531 302.851562 369.851562 302.851562 C 369.21875 302.851562 368.710938 303.058594 368.339844 303.488281 C 367.960938 303.921875 367.761719 304.511719 367.730469 305.261719 Z M 387.429688 307.039062 C 387.429688 307.949219 387.089844 308.671875 386.410156 309.179688 C 385.738281 309.691406 384.820312 309.941406 383.628906 309.941406 L 379.441406 309.941406 L 379.441406 299.628906 L 383.191406 299.628906 C 385.609375 299.628906 386.820312 300.460938 386.820312 302.128906 C 386.820312 302.730469 386.648438 303.25 386.300781 303.660156 C 385.96875 304.078125 385.488281 304.359375 384.859375 304.511719 C 385.679688 304.601562 386.308594 304.878906 386.761719 305.328125 C 387.199219 305.78125 387.429688 306.351562 387.429688 307.039062 Z M 386.011719 306.929688 C 386.011719 305.710938 385.148438 305.101562 383.441406 305.101562 L 380.828125 305.101562 L 380.828125 308.820312 L 383.550781 308.820312 C 384.410156 308.820312 385.03125 308.660156 385.410156 308.351562 C 385.808594 308.03125 386.011719 307.550781 386.011719 306.929688 Z M 385.410156 302.300781 C 385.410156 301.738281 385.21875 301.339844 384.828125 301.101562 C 384.460938 300.859375 383.910156 300.738281 383.191406 300.738281 L 380.828125 300.738281 L 380.828125 304.011719 L 383.191406 304.011719 C 383.929688 304.011719 384.480469 303.859375 384.851562 303.578125 C 385.21875 303.300781 385.410156 302.878906 385.410156 302.300781 Z M 398.210938 309.941406 L 398.210938 303.050781 C 398.210938 302.289062 398.238281 301.558594 398.289062 300.859375 C 398.050781 301.738281 397.828125 302.421875 397.640625 302.910156 L 394.980469 309.941406 L 393.988281 309.941406 L 391.289062 302.910156 L 390.890625 301.660156 L 390.640625 300.859375 L 390.671875 301.679688 L 390.679688 303.050781 L 390.679688 309.941406 L 389.449219 309.941406 L 389.449219 299.628906 L 391.28125 299.628906 L 394.03125 306.769531 C 394.128906 307.058594 394.21875 307.378906 394.308594 307.710938 C 394.398438 308.03125 394.460938 308.269531 394.488281 308.410156 C 394.53125 308.21875 394.601562 307.929688 394.730469 307.539062 C 394.851562 307.128906 394.941406 306.878906 394.988281 306.769531 L 397.679688 299.628906 L 399.480469 299.628906 L 399.480469 309.941406 Z M 398.210938 309.941406 "/>
<path fill-rule="nonzero" fill="rgb(0%, 0%, 0%)" fill-opacity="1" d="M 274.351562 49.355469 L 275.960938 49.355469 L 275.960938 50.777344 L 274.351562 50.777344 Z M 274.351562 53.523438 L 275.960938 53.523438 L 275.960938 54.945312 L 274.351562 54.945312 Z M 274.351562 57.691406 L 275.960938 57.691406 L 275.960938 59.113281 L 274.351562 59.113281 Z M 274.351562 57.691406 "/>
<path fill-rule="nonzero" fill="rgb(0%, 0%, 0%)" fill-opacity="1" d="M 368.789062 46.515625 L 370.398438 46.515625 L 370.398438 47.9375 L 368.789062 47.9375 Z M 368.789062 50.683594 L 370.398438 50.683594 L 370.398438 52.105469 L 368.789062 52.105469 Z M 368.789062 54.851562 L 370.398438 54.851562 L 370.398438 56.273438 L 368.789062 56.273438 Z M 368.789062 54.851562 "/>
<path fill-rule="nonzero" fill="rgb(0%, 0%, 0%)" fill-opacity="1" d="M 275.789062 273.335938 L 277.398438 273.335938 L 277.398438 274.757812 L 275.789062 274.757812 Z M 275.789062 277.503906 L 277.398438 277.503906 L 277.398438 278.925781 L 275.789062 278.925781 Z M 275.789062 281.671875 L 277.398438 281.671875 L 277.398438 283.09375 L 275.789062 283.09375 Z M 275.789062 281.671875 "/>
<path fill-rule="nonzero" fill="rgb(0%, 0%, 0%)" fill-opacity="1" d="M 371.070312 273.335938 L 372.679688 273.335938 L 372.679688 274.757812 L 371.070312 274.757812 Z M 371.070312 277.503906 L 372.679688 277.503906 L 372.679688 278.925781 L 371.070312 278.925781 Z M 371.070312 281.671875 L 372.679688 281.671875 L 372.679688 283.09375 L 371.070312 283.09375 Z M 371.070312 281.671875 "/>
<path fill-rule="nonzero" fill="rgb(0%, 0%, 0%)" fill-opacity="1" d="M 317.761719 277.238281 L 317.761719 275.628906 L 319.191406 275.628906 L 319.191406 277.238281 Z M 321.929688 277.238281 L 321.929688 275.628906 L 323.351562 275.628906 L 323.351562 277.238281 Z M 326.101562 277.238281 L 326.101562 275.628906 L 327.519531 275.628906 L 327.519531 277.238281 Z M 326.101562 277.238281 "/>
<path fill-rule="nonzero" fill="rgb(0%, 0%, 0%)" fill-opacity="1" d="M 314.929688 56.589844 L 314.929688 54.980469 L 316.351562 54.980469 L 316.351562 56.589844 Z M 319.101562 56.589844 L 319.101562 54.980469 L 320.519531 54.980469 L 320.519531 56.589844 Z M 323.261719 56.589844 L 323.261719 54.980469 L 324.691406 54.980469 L 324.691406 56.589844 Z M 323.261719 56.589844 "/>
<path fill="none" stroke-width="4" stroke-linecap="butt" stroke-linejoin="miter" stroke="rgb(0%, 0%, 0%)" stroke-opacity="1" stroke-miterlimit="1.45" d="M 237.761719 477.300781 C 237.761719 490.941406 226.171875 502 211.878906 502 C 197.589844 502 186 490.941406 186 477.300781 C 186 463.660156 197.589844 452.601562 211.878906 452.601562 C 226.171875 452.601562 237.761719 463.660156 237.761719 477.300781 Z M 237.761719 477.300781 " transform="matrix(1, 0, 0, 1, -35, -311)"/>
<path fill-rule="nonzero" fill="rgb(0%, 0%, 0%)" fill-opacity="1" d="M 175.820312 171.5 L 173.140625 167.21875 L 169.921875 167.21875 L 169.921875 171.5 L 168.53125 171.5 L 168.53125 161.191406 L 173.390625 161.191406 C 174.539062 161.191406 175.441406 161.449219 176.070312 161.96875 C 176.710938 162.480469 177.03125 163.199219 177.03125 164.128906 C 177.03125 164.898438 176.800781 165.539062 176.359375 166.058594 C 175.910156 166.578125 175.289062 166.910156 174.5 167.050781 L 177.429688 171.5 Z M 175.621094 164.140625 C 175.621094 163.550781 175.410156 163.089844 175 162.78125 C 174.589844 162.460938 174.011719 162.300781 173.25 162.300781 L 169.921875 162.300781 L 169.921875 166.109375 L 173.289062 166.109375 C 174.03125 166.109375 174.609375 165.941406 175.011719 165.589844 C 175.421875 165.25 175.621094 164.769531 175.621094 164.140625 Z M 185.878906 166.339844 C 185.878906 168.058594 185.570312 169.378906 184.96875 170.28125 C 184.359375 171.191406 183.46875 171.640625 182.28125 171.640625 C 181.089844 171.640625 180.199219 171.191406 179.609375 170.300781 C 179.019531 169.390625 178.71875 168.070312 178.71875 166.339844 C 178.71875 164.558594 179.011719 163.230469 179.578125 162.359375 C 180.160156 161.46875 181.078125 161.03125 182.328125 161.03125 C 183.539062 161.03125 184.429688 161.480469 185 162.378906 C 185.578125 163.261719 185.878906 164.578125 185.878906 166.339844 Z M 184.550781 166.339844 C 184.550781 164.851562 184.378906 163.78125 184.03125 163.109375 C 183.691406 162.429688 183.121094 162.089844 182.328125 162.089844 C 181.519531 162.089844 180.929688 162.429688 180.578125 163.089844 C 180.21875 163.75 180.050781 164.828125 180.050781 166.339844 C 180.050781 167.800781 180.21875 168.871094 180.578125 169.550781 C 180.941406 170.21875 181.519531 170.558594 182.300781 170.558594 C 183.070312 170.558594 183.640625 170.21875 184 169.53125 C 184.359375 168.828125 184.550781 167.769531 184.550781 166.339844 Z M 184.550781 166.339844 "/>
<path fill="none" stroke-width="4" stroke-linecap="butt" stroke-linejoin="miter" stroke="rgb(0%, 0%, 0%)" stroke-opacity="1" stroke-miterlimit="1.45" d="M 91.960938 477.300781 C 91.960938 490.941406 80.371094 502 66.078125 502 C 51.785156 502 40.199219 490.941406 40.199219 477.300781 C 40.199219 463.660156 51.785156 452.601562 66.078125 452.601562 C 80.371094 452.601562 91.960938 463.660156 91.960938 477.300781 Z M 91.960938 477.300781 " transform="matrix(1, 0, 0, 1, -35, -311)"/>
<path fill-rule="nonzero" fill="rgb(0%, 0%, 0%)" fill-opacity="1" d="M 29.191406 171.5 L 26.503906 167.21875 L 23.285156 167.21875 L 23.285156 171.5 L 21.894531 171.5 L 21.894531 161.191406 L 26.753906 161.191406 C 27.910156 161.191406 28.808594 161.449219 29.441406 161.96875 C 30.078125 162.480469 30.394531 163.199219 30.394531 164.128906 C 30.394531 164.898438 30.171875 165.539062 29.722656 166.058594 C 29.277344 166.578125 28.65625 166.910156 27.863281 167.050781 L 30.800781 171.5 Z M 28.988281 164.140625 C 28.988281 163.550781 28.78125 163.089844 28.363281 162.78125 C 27.957031 162.460938 27.375 162.300781 26.613281 162.300781 L 23.285156 162.300781 L 23.285156 166.109375 L 26.660156 166.109375 C 27.402344 166.109375 27.972656 165.941406 28.378906 165.589844 C 28.785156 165.25 28.988281 164.769531 28.988281 164.140625 Z M 32.726562 171.5 L 32.726562 161.191406 L 40.554688 161.191406 L 40.554688 162.328125 L 34.117188 162.328125 L 34.117188 165.640625 L 40.117188 165.640625 L 40.117188 166.769531 L 34.117188 166.769531 L 34.117188 170.359375 L 40.851562 170.359375 L 40.851562 171.5 Z M 32.726562 171.5 "/>
<path fill="none" stroke-width="1" stroke-linecap="butt" stroke-linejoin="miter" stroke="rgb(0%, 0%, 0%)" stroke-opacity="1" stroke-dasharray="6 2" stroke-miterlimit="1.45" d="M 376.839844 335.441406 L 433.71875 335.441406 L 433.71875 384.839844 L 376.839844 384.839844 Z M 376.839844 335.441406 " transform="matrix(1, 0, 0, 1, -35, -311)"/>
<path fill-rule="nonzero" fill="rgb(0%, 0%, 0%)" fill-opacity="1" d="M 349.980469 17.679688 C 349.980469 18.601562 349.640625 19.308594 348.960938 19.820312 C 348.300781 20.328125 347.371094 20.589844 346.179688 20.589844 L 341.988281 20.589844 L 341.988281 10.269531 L 345.738281 10.269531 C 348.160156 10.269531 349.371094 11.109375 349.371094 12.769531 C 349.371094 13.378906 349.199219 13.890625 348.851562 14.308594 C 348.519531 14.71875 348.039062 15 347.421875 15.148438 C 348.230469 15.238281 348.859375 15.519531 349.308594 15.980469 C 349.75 16.421875 349.980469 16.988281 349.980469 17.679688 Z M 348.558594 17.570312 C 348.558594 16.351562 347.699219 15.738281 345.988281 15.738281 L 343.378906 15.738281 L 343.378906 19.460938 L 346.101562 19.460938 C 346.960938 19.460938 347.578125 19.308594 347.960938 18.988281 C 348.359375 18.671875 348.558594 18.199219 348.558594 17.570312 Z M 347.960938 12.949219 C 347.960938 12.378906 347.769531 11.980469 347.378906 11.738281 C 347.011719 11.5 346.460938 11.378906 345.738281 11.378906 L 343.378906 11.378906 L 343.378906 14.648438 L 345.738281 14.648438 C 346.480469 14.648438 347.039062 14.511719 347.398438 14.230469 C 347.78125 13.949219 347.960938 13.519531 347.960938 12.949219 Z M 353.800781 20.730469 C 353 20.730469 352.410156 20.519531 352 20.101562 C 351.601562 19.691406 351.410156 19.109375 351.410156 18.371094 C 351.410156 17.558594 351.671875 16.929688 352.199219 16.488281 C 352.738281 16.039062 353.621094 15.808594 354.828125 15.769531 L 356.609375 15.761719 L 356.609375 15.320312 C 356.609375 14.671875 356.46875 14.21875 356.191406 13.949219 C 355.921875 13.660156 355.488281 13.519531 354.910156 13.519531 C 354.308594 13.519531 353.878906 13.621094 353.609375 13.820312 C 353.351562 14.019531 353.191406 14.339844 353.121094 14.769531 L 351.75 14.648438 C 351.980469 13.21875 353.039062 12.511719 354.941406 12.511719 C 355.929688 12.511719 356.671875 12.738281 357.171875 13.199219 C 357.679688 13.648438 357.941406 14.320312 357.941406 15.179688 L 357.941406 18.589844 C 357.941406 18.980469 357.988281 19.28125 358.089844 19.480469 C 358.199219 19.671875 358.390625 19.769531 358.671875 19.769531 C 358.800781 19.769531 358.941406 19.761719 359.109375 19.730469 L 359.109375 20.539062 C 358.769531 20.621094 358.441406 20.660156 358.089844 20.660156 C 357.601562 20.660156 357.238281 20.53125 357.011719 20.269531 C 356.800781 20.011719 356.671875 19.609375 356.640625 19.070312 L 356.609375 19.070312 C 356.261719 19.671875 355.871094 20.101562 355.421875 20.351562 C 354.96875 20.601562 354.429688 20.730469 353.800781 20.730469 Z M 354.089844 19.738281 C 354.578125 19.738281 355.011719 19.628906 355.390625 19.410156 C 355.761719 19.199219 356.058594 18.890625 356.28125 18.511719 C 356.5 18.121094 356.609375 17.730469 356.609375 17.320312 L 356.609375 16.679688 L 355.160156 16.710938 C 354.539062 16.710938 354.070312 16.769531 353.75 16.898438 C 353.429688 17.011719 353.179688 17.199219 353.011719 17.449219 C 352.851562 17.691406 352.761719 18 352.761719 18.398438 C 352.761719 18.828125 352.878906 19.160156 353.109375 19.398438 C 353.339844 19.628906 353.671875 19.738281 354.089844 19.738281 Z M 366.058594 18.398438 C 366.058594 19.148438 365.78125 19.730469 365.21875 20.128906 C 364.648438 20.53125 363.871094 20.730469 362.859375 20.730469 C 361.871094 20.730469 361.101562 20.570312 360.558594 20.238281 C 360.03125 19.921875 359.679688 19.410156 359.53125 18.730469 L 360.679688 18.488281 C 360.800781 18.921875 361.03125 19.230469 361.390625 19.429688 C 361.738281 19.628906 362.230469 19.730469 362.859375 19.730469 C 363.519531 19.730469 364.011719 19.628906 364.308594 19.429688 C 364.621094 19.21875 364.78125 18.910156 364.78125 18.488281 C 364.78125 18.179688 364.671875 17.929688 364.449219 17.738281 C 364.238281 17.539062 363.898438 17.378906 363.421875 17.261719 L 362.480469 17.011719 C 361.71875 16.808594 361.179688 16.621094 360.859375 16.429688 C 360.539062 16.238281 360.289062 16.011719 360.109375 15.738281 C 359.929688 15.46875 359.839844 15.140625 359.839844 14.761719 C 359.839844 14.03125 360.101562 13.480469 360.609375 13.101562 C 361.128906 12.730469 361.878906 12.539062 362.859375 12.539062 C 363.730469 12.539062 364.421875 12.699219 364.929688 13.011719 C 365.460938 13.308594 365.78125 13.800781 365.921875 14.480469 L 364.730469 14.621094 C 364.660156 14.269531 364.460938 14.011719 364.140625 13.820312 C 363.828125 13.628906 363.398438 13.539062 362.859375 13.539062 C 362.261719 13.539062 361.828125 13.628906 361.539062 13.808594 C 361.261719 13.980469 361.121094 14.25 361.121094 14.621094 C 361.121094 14.851562 361.179688 15.03125 361.289062 15.179688 C 361.410156 15.328125 361.578125 15.449219 361.808594 15.558594 C 362.039062 15.660156 362.519531 15.800781 363.261719 15.980469 C 363.960938 16.148438 364.460938 16.320312 364.761719 16.480469 C 365.078125 16.621094 365.320312 16.78125 365.5 16.960938 C 365.679688 17.140625 365.828125 17.351562 365.921875 17.589844 C 366.011719 17.828125 366.058594 18.101562 366.058594 18.398438 Z M 368.621094 16.898438 C 368.621094 17.808594 368.808594 18.511719 369.179688 19.011719 C 369.570312 19.5 370.121094 19.738281 370.839844 19.738281 C 371.410156 19.738281 371.871094 19.628906 372.21875 19.398438 C 372.558594 19.171875 372.789062 18.878906 372.921875 18.519531 L 374.078125 18.851562 C 373.601562 20.101562 372.519531 20.730469 370.839844 20.730469 C 369.660156 20.730469 368.769531 20.378906 368.148438 19.679688 C 367.550781 18.980469 367.25 17.949219 367.25 16.570312 C 367.25 15.261719 367.550781 14.25 368.148438 13.558594 C 368.769531 12.859375 369.648438 12.511719 370.789062 12.511719 C 373.121094 12.511719 374.28125 13.910156 374.28125 16.730469 L 374.28125 16.898438 Z M 372.921875 15.898438 C 372.851562 15.058594 372.628906 14.449219 372.28125 14.070312 C 371.929688 13.691406 371.429688 13.488281 370.761719 13.488281 C 370.128906 13.488281 369.621094 13.710938 369.25 14.128906 C 368.871094 14.558594 368.671875 15.148438 368.640625 15.898438 Z M 387.660156 20.589844 L 386.488281 17.570312 L 381.789062 17.570312 L 380.601562 20.589844 L 379.148438 20.589844 L 383.351562 10.269531 L 384.941406 10.269531 L 389.089844 20.589844 Z M 384.128906 11.320312 L 384.070312 11.519531 C 383.941406 11.929688 383.761719 12.449219 383.519531 13.089844 L 382.210938 16.480469 L 386.070312 16.480469 L 384.738281 13.070312 C 384.609375 12.738281 384.46875 12.359375 384.339844 11.929688 Z M 397.039062 20.589844 L 391.53125 11.789062 L 391.558594 12.511719 L 391.589844 13.730469 L 391.589844 20.589844 L 390.359375 20.589844 L 390.359375 10.269531 L 391.980469 10.269531 L 397.558594 19.121094 C 397.5 18.160156 397.46875 17.46875 397.46875 17.039062 L 397.46875 10.269531 L 398.730469 10.269531 L 398.730469 20.589844 Z M 397.039062 20.589844 "/>
<path fill="none" stroke-width="1" stroke-linecap="butt" stroke-linejoin="miter" stroke="rgb(0%, 0%, 0%)" stroke-opacity="1" stroke-dasharray="6 2" stroke-miterlimit="1.45" d="M 281.558594 335.441406 L 338.441406 335.441406 L 338.441406 384.839844 L 281.558594 384.839844 Z M 281.558594 335.441406 " transform="matrix(1, 0, 0, 1, -35, -311)"/>
<path fill-rule="nonzero" fill="rgb(0%, 0%, 0%)" fill-opacity="1" d="M 255.941406 17.679688 C 255.941406 18.601562 255.601562 19.308594 254.929688 19.820312 C 254.261719 20.328125 253.328125 20.589844 252.148438 20.589844 L 247.960938 20.589844 L 247.960938 10.269531 L 251.710938 10.269531 C 254.128906 10.269531 255.328125 11.109375 255.328125 12.769531 C 255.328125 13.378906 255.160156 13.890625 254.820312 14.308594 C 254.488281 14.71875 254.011719 15 253.378906 15.148438 C 254.191406 15.238281 254.820312 15.519531 255.269531 15.980469 C 255.71875 16.421875 255.941406 16.988281 255.941406 17.679688 Z M 254.519531 17.570312 C 254.519531 16.351562 253.671875 15.738281 251.960938 15.738281 L 249.351562 15.738281 L 249.351562 19.460938 L 252.070312 19.460938 C 252.921875 19.460938 253.539062 19.308594 253.929688 18.988281 C 254.320312 18.671875 254.519531 18.199219 254.519531 17.570312 Z M 253.929688 12.949219 C 253.929688 12.378906 253.738281 11.980469 253.351562 11.738281 C 252.96875 11.5 252.429688 11.378906 251.710938 11.378906 L 249.351562 11.378906 L 249.351562 14.648438 L 251.710938 14.648438 C 252.449219 14.648438 253 14.511719 253.371094 14.230469 C 253.738281 13.949219 253.929688 13.519531 253.929688 12.949219 Z M 259.761719 20.730469 C 258.96875 20.730469 258.371094 20.519531 257.960938 20.101562 C 257.570312 19.691406 257.371094 19.109375 257.371094 18.371094 C 257.371094 17.558594 257.640625 16.929688 258.171875 16.488281 C 258.710938 16.039062 259.578125 15.808594 260.789062 15.769531 L 262.570312 15.761719 L 262.570312 15.320312 C 262.570312 14.671875 262.429688 14.21875 262.148438 13.949219 C 261.878906 13.660156 261.449219 13.519531 260.871094 13.519531 C 260.28125 13.519531 259.839844 13.621094 259.570312 13.820312 C 259.308594 14.019531 259.148438 14.339844 259.089844 14.769531 L 257.710938 14.648438 C 257.941406 13.21875 259.011719 12.511719 260.898438 12.511719 C 261.890625 12.511719 262.640625 12.738281 263.140625 13.199219 C 263.648438 13.648438 263.898438 14.320312 263.898438 15.179688 L 263.898438 18.589844 C 263.898438 18.980469 263.949219 19.28125 264.058594 19.480469 C 264.160156 19.671875 264.351562 19.769531 264.640625 19.769531 C 264.761719 19.769531 264.910156 19.761719 265.070312 19.730469 L 265.070312 20.539062 C 264.738281 20.621094 264.398438 20.660156 264.058594 20.660156 C 263.570312 20.660156 263.210938 20.53125 262.980469 20.269531 C 262.761719 20.011719 262.640625 19.609375 262.601562 19.070312 L 262.570312 19.070312 C 262.230469 19.671875 261.828125 20.101562 261.390625 20.351562 C 260.941406 20.601562 260.398438 20.730469 259.761719 20.730469 Z M 260.058594 19.738281 C 260.550781 19.738281 260.980469 19.628906 261.351562 19.410156 C 261.730469 19.199219 262.03125 18.890625 262.25 18.511719 C 262.460938 18.121094 262.570312 17.730469 262.570312 17.320312 L 262.570312 16.679688 L 261.121094 16.710938 C 260.511719 16.710938 260.039062 16.769531 259.710938 16.898438 C 259.390625 17.011719 259.148438 17.199219 258.980469 17.449219 C 258.808594 17.691406 258.730469 18 258.730469 18.398438 C 258.730469 18.828125 258.839844 19.160156 259.070312 19.398438 C 259.300781 19.628906 259.628906 19.738281 260.058594 19.738281 Z M 272.03125 18.398438 C 272.03125 19.148438 271.738281 19.730469 271.179688 20.128906 C 270.621094 20.53125 269.828125 20.730469 268.820312 20.730469 C 267.828125 20.730469 267.070312 20.570312 266.53125 20.238281 C 265.988281 19.921875 265.648438 19.410156 265.488281 18.730469 L 266.648438 18.488281 C 266.761719 18.921875 267 19.230469 267.351562 19.429688 C 267.710938 19.628906 268.199219 19.730469 268.820312 19.730469 C 269.488281 19.730469 269.96875 19.628906 270.28125 19.429688 C 270.589844 19.21875 270.738281 18.910156 270.738281 18.488281 C 270.738281 18.179688 270.628906 17.929688 270.421875 17.738281 C 270.210938 17.539062 269.859375 17.378906 269.378906 17.261719 L 268.449219 17.011719 C 267.691406 16.808594 267.140625 16.621094 266.820312 16.429688 C 266.511719 16.238281 266.261719 16.011719 266.070312 15.738281 C 265.890625 15.46875 265.808594 15.140625 265.808594 14.761719 C 265.808594 14.03125 266.058594 13.480469 266.570312 13.101562 C 267.089844 12.730469 267.839844 12.539062 268.820312 12.539062 C 269.699219 12.539062 270.390625 12.699219 270.898438 13.011719 C 271.421875 13.308594 271.75 13.800781 271.878906 14.480469 L 270.699219 14.621094 C 270.621094 14.269531 270.429688 14.011719 270.101562 13.820312 C 269.789062 13.628906 269.359375 13.539062 268.820312 13.539062 C 268.230469 13.539062 267.789062 13.628906 267.511719 13.808594 C 267.230469 13.980469 267.089844 14.25 267.089844 14.621094 C 267.089844 14.851562 267.140625 15.03125 267.261719 15.179688 C 267.371094 15.328125 267.550781 15.449219 267.78125 15.558594 C 268 15.660156 268.488281 15.800781 269.230469 15.980469 C 269.929688 16.148438 270.429688 16.320312 270.730469 16.480469 C 271.039062 16.621094 271.289062 16.78125 271.460938 16.960938 C 271.648438 17.140625 271.789062 17.351562 271.878906 17.589844 C 271.980469 17.828125 272.03125 18.101562 272.03125 18.398438 Z M 274.589844 16.898438 C 274.589844 17.808594 274.78125 18.511719 275.148438 19.011719 C 275.539062 19.5 276.089844 19.738281 276.808594 19.738281 C 277.378906 19.738281 277.839844 19.628906 278.179688 19.398438 C 278.53125 19.171875 278.761719 18.878906 278.878906 18.519531 L 280.039062 18.851562 C 279.558594 20.101562 278.480469 20.730469 276.808594 20.730469 C 275.628906 20.730469 274.730469 20.378906 274.121094 19.679688 C 273.511719 18.980469 273.210938 17.949219 273.210938 16.570312 C 273.210938 15.261719 273.511719 14.25 274.121094 13.558594 C 274.730469 12.859375 275.609375 12.511719 276.761719 12.511719 C 279.078125 12.511719 280.238281 13.910156 280.238281 16.730469 L 280.238281 16.898438 Z M 278.878906 15.898438 C 278.808594 15.058594 278.601562 14.449219 278.238281 14.070312 C 277.898438 13.691406 277.390625 13.488281 276.730469 13.488281 C 276.089844 13.488281 275.589844 13.710938 275.210938 14.128906 C 274.839844 14.558594 274.628906 15.148438 274.601562 15.898438 Z M 293.628906 20.589844 L 292.460938 17.570312 L 287.75 17.570312 L 286.570312 20.589844 L 285.109375 20.589844 L 289.320312 10.269531 L 290.910156 10.269531 L 295.050781 20.589844 Z M 290.101562 11.320312 L 290.03125 11.519531 C 289.910156 11.929688 289.730469 12.449219 289.488281 13.089844 L 288.179688 16.480469 L 292.03125 16.480469 L 290.710938 13.070312 C 290.570312 12.738281 290.441406 12.359375 290.300781 11.929688 Z M 296.230469 20.589844 L 296.230469 19.460938 L 298.851562 19.460938 L 298.851562 11.519531 L 296.519531 13.199219 L 296.519531 11.949219 L 298.960938 10.269531 L 300.179688 10.269531 L 300.179688 19.460938 L 302.699219 19.460938 L 302.699219 20.589844 Z M 296.230469 20.589844 "/>
<path fill="none" stroke-width="1" stroke-linecap="butt" stroke-linejoin="miter" stroke="rgb(0%, 0%, 0%)" stroke-opacity="1" stroke-dasharray="6 2" stroke-miterlimit="1.45" d="M 215.960938 488.238281 L 450.078125 488.238281 L 450.078125 551.078125 L 215.960938 551.078125 Z M 215.960938 488.238281 " transform="matrix(1, 0, 0, 1, -35, -311)"/>
<path fill-rule="nonzero" fill="rgb(0%, 0%, 0%)" fill-opacity="1" d="M 353.101562 187.359375 C 353.101562 188.300781 352.71875 189.039062 351.96875 189.558594 C 351.230469 190.078125 350.191406 190.339844 348.828125 190.339844 C 346.320312 190.339844 344.871094 189.46875 344.46875 187.730469 L 345.820312 187.449219 C 345.96875 188.078125 346.308594 188.53125 346.820312 188.828125 C 347.328125 189.121094 348.019531 189.261719 348.890625 189.261719 C 349.789062 189.261719 350.480469 189.109375 350.96875 188.789062 C 351.46875 188.480469 351.71875 188.019531 351.71875 187.421875 C 351.71875 187.089844 351.640625 186.808594 351.488281 186.609375 C 351.328125 186.398438 351.109375 186.230469 350.828125 186.089844 C 350.558594 185.941406 350.230469 185.828125 349.851562 185.75 C 349.460938 185.648438 349.03125 185.550781 348.570312 185.429688 C 347.738281 185.261719 347.121094 185.078125 346.691406 184.898438 C 346.269531 184.71875 345.941406 184.511719 345.691406 184.289062 C 345.449219 184.078125 345.269531 183.808594 345.140625 183.511719 C 345.019531 183.210938 344.960938 182.871094 344.960938 182.480469 C 344.960938 181.609375 345.289062 180.929688 345.960938 180.449219 C 346.628906 179.96875 347.601562 179.730469 348.859375 179.730469 C 350.039062 179.730469 350.941406 179.910156 351.550781 180.28125 C 352.179688 180.628906 352.609375 181.238281 352.859375 182.109375 L 351.488281 182.339844 C 351.328125 181.800781 351.039062 181.398438 350.609375 181.148438 C 350.199219 180.898438 349.609375 180.78125 348.851562 180.78125 C 348.019531 180.78125 347.390625 180.921875 346.960938 181.199219 C 346.53125 181.46875 346.320312 181.878906 346.320312 182.421875 C 346.320312 182.730469 346.398438 182.988281 346.570312 183.199219 C 346.730469 183.410156 346.96875 183.589844 347.28125 183.730469 C 347.609375 183.878906 348.238281 184.050781 349.191406 184.261719 C 349.5 184.339844 349.820312 184.410156 350.128906 184.480469 C 350.449219 184.550781 350.75 184.648438 351.03125 184.761719 C 351.328125 184.871094 351.601562 184.988281 351.851562 185.140625 C 352.101562 185.269531 352.320312 185.441406 352.5 185.648438 C 352.691406 185.851562 352.839844 186.089844 352.941406 186.371094 C 353.039062 186.648438 353.101562 186.980469 353.101562 187.359375 Z M 361.511719 186.230469 C 361.511719 187.621094 361.199219 188.648438 360.589844 189.328125 C 359.96875 190 359.089844 190.339844 357.929688 190.339844 C 356.769531 190.339844 355.898438 189.988281 355.308594 189.289062 C 354.710938 188.589844 354.410156 187.558594 354.410156 186.230469 C 354.410156 183.488281 355.601562 182.121094 357.980469 182.121094 C 359.191406 182.121094 360.078125 182.460938 360.648438 183.121094 C 361.21875 183.789062 361.511719 184.828125 361.511719 186.230469 Z M 360.121094 186.230469 C 360.121094 185.140625 359.960938 184.351562 359.628906 183.859375 C 359.308594 183.359375 358.761719 183.109375 357.988281 183.109375 C 357.21875 183.109375 356.660156 183.359375 356.320312 183.871094 C 355.980469 184.371094 355.808594 185.160156 355.808594 186.230469 C 355.808594 187.269531 355.96875 188.058594 356.308594 188.589844 C 356.648438 189.109375 357.191406 189.371094 357.910156 189.371094 C 358.710938 189.371094 359.269531 189.121094 359.601562 188.621094 C 359.949219 188.109375 360.121094 187.308594 360.121094 186.230469 Z M 364.429688 182.28125 L 364.429688 187.289062 C 364.429688 187.828125 364.480469 188.238281 364.578125 188.53125 C 364.691406 188.808594 364.851562 189.011719 365.070312 189.140625 C 365.300781 189.261719 365.628906 189.328125 366.070312 189.328125 C 366.699219 189.328125 367.199219 189.109375 367.570312 188.679688 C 367.929688 188.25 368.121094 187.640625 368.121094 186.871094 L 368.121094 182.28125 L 369.429688 182.28125 L 369.429688 188.511719 C 369.429688 189.429688 369.441406 189.988281 369.480469 190.199219 L 368.230469 190.199219 C 368.230469 190.179688 368.21875 190.121094 368.210938 190.011719 C 368.210938 189.898438 368.199219 189.769531 368.191406 189.640625 C 368.191406 189.488281 368.191406 189.230469 368.179688 188.839844 L 368.148438 188.839844 C 367.851562 189.390625 367.5 189.78125 367.101562 190.011719 C 366.699219 190.230469 366.210938 190.339844 365.621094 190.339844 C 364.75 190.339844 364.121094 190.128906 363.710938 189.699219 C 363.300781 189.261719 363.101562 188.550781 363.101562 187.558594 L 363.101562 182.28125 Z M 374.539062 190.140625 C 374.101562 190.261719 373.648438 190.328125 373.191406 190.328125 C 372.140625 190.328125 371.609375 189.730469 371.609375 188.53125 L 371.609375 183.230469 L 370.710938 183.230469 L 370.710938 182.28125 L 371.660156 182.28125 L 372.050781 180.5 L 372.941406 180.5 L 372.941406 182.28125 L 374.398438 182.28125 L 374.398438 183.230469 L 372.941406 183.230469 L 372.941406 188.230469 C 372.941406 188.621094 373 188.890625 373.109375 189.039062 C 373.238281 189.191406 373.460938 189.261719 373.769531 189.261719 C 373.949219 189.261719 374.199219 189.230469 374.539062 189.171875 Z M 376.96875 183.640625 C 377.25 183.121094 377.589844 182.738281 377.988281 182.5 C 378.378906 182.25 378.890625 182.121094 379.5 182.121094 C 380.359375 182.121094 380.988281 182.339844 381.390625 182.761719 C 381.808594 183.191406 382.019531 183.910156 382.019531 184.921875 L 382.019531 190.199219 L 380.691406 190.199219 L 380.691406 185.171875 C 380.691406 184.621094 380.640625 184.210938 380.53125 183.929688 C 380.429688 183.660156 380.261719 183.46875 380.019531 183.339844 C 379.789062 183.21875 379.460938 183.148438 379.050781 183.148438 C 378.429688 183.148438 377.941406 183.371094 377.558594 183.789062 C 377.191406 184.21875 377 184.800781 377 185.53125 L 377 190.199219 L 375.691406 190.199219 L 375.691406 179.328125 L 377 179.328125 L 377 182.148438 C 377 182.460938 376.988281 182.769531 376.96875 183.089844 C 376.960938 183.398438 376.949219 183.589844 376.941406 183.640625 Z M 394.871094 186.199219 C 394.871094 188.960938 393.898438 190.339844 391.949219 190.339844 C 391.339844 190.339844 390.839844 190.238281 390.449219 190.03125 C 390.050781 189.808594 389.730469 189.460938 389.480469 188.96875 L 389.460938 188.96875 C 389.460938 189.121094 389.449219 189.359375 389.429688 189.671875 C 389.410156 189.96875 389.398438 190.148438 389.390625 190.199219 L 388.121094 190.199219 C 388.148438 189.941406 388.171875 189.390625 388.171875 188.558594 L 388.171875 179.328125 L 389.480469 179.328125 L 389.480469 182.429688 C 389.480469 182.75 389.46875 183.121094 389.449219 183.539062 L 389.480469 183.539062 C 389.730469 183.039062 390.050781 182.679688 390.449219 182.46875 C 390.851562 182.238281 391.351562 182.121094 391.949219 182.121094 C 392.949219 182.121094 393.679688 182.460938 394.148438 183.140625 C 394.628906 183.808594 394.871094 184.839844 394.871094 186.199219 Z M 393.480469 186.25 C 393.480469 185.128906 393.328125 184.339844 393.039062 183.871094 C 392.75 183.390625 392.269531 183.148438 391.601562 183.148438 C 390.859375 183.148438 390.320312 183.410156 389.980469 183.921875 C 389.648438 184.421875 389.480469 185.21875 389.480469 186.328125 C 389.480469 187.371094 389.648438 188.140625 389.980469 188.640625 C 390.308594 189.128906 390.851562 189.371094 391.601562 189.371094 C 392.261719 189.371094 392.730469 189.128906 393.03125 188.640625 C 393.328125 188.148438 393.480469 187.351562 393.480469 186.25 Z M 397.789062 182.28125 L 397.789062 187.289062 C 397.789062 187.828125 397.839844 188.238281 397.949219 188.53125 C 398.050781 188.808594 398.210938 189.011719 398.429688 189.140625 C 398.660156 189.261719 398.988281 189.328125 399.429688 189.328125 C 400.070312 189.328125 400.570312 189.109375 400.929688 188.679688 C 401.300781 188.25 401.480469 187.640625 401.480469 186.871094 L 401.480469 182.28125 L 402.789062 182.28125 L 402.789062 188.511719 C 402.789062 189.429688 402.808594 189.988281 402.839844 190.199219 L 401.589844 190.199219 C 401.589844 190.179688 401.578125 190.121094 401.570312 190.011719 C 401.570312 189.898438 401.570312 189.769531 401.558594 189.640625 C 401.558594 189.488281 401.550781 189.230469 401.539062 188.839844 L 401.511719 188.839844 C 401.210938 189.390625 400.859375 189.78125 400.460938 190.011719 C 400.070312 190.230469 399.570312 190.339844 398.980469 190.339844 C 398.109375 190.339844 397.480469 190.128906 397.070312 189.699219 C 396.671875 189.261719 396.460938 188.550781 396.460938 187.558594 L 396.460938 182.28125 Z M 410.789062 188.011719 C 410.789062 188.761719 410.511719 189.339844 409.949219 189.75 C 409.378906 190.140625 408.601562 190.339844 407.589844 190.339844 C 406.601562 190.339844 405.828125 190.179688 405.289062 189.859375 C 404.761719 189.53125 404.410156 189.03125 404.261719 188.339844 L 405.410156 188.109375 C 405.53125 188.53125 405.761719 188.851562 406.121094 189.039062 C 406.46875 189.238281 406.960938 189.339844 407.589844 189.339844 C 408.25 189.339844 408.738281 189.238281 409.039062 189.039062 C 409.351562 188.839844 409.511719 188.519531 409.511719 188.109375 C 409.511719 187.789062 409.398438 187.539062 409.179688 187.359375 C 408.96875 187.160156 408.628906 187 408.148438 186.871094 L 407.210938 186.621094 C 406.449219 186.421875 405.910156 186.230469 405.589844 186.039062 C 405.269531 185.859375 405.019531 185.628906 404.839844 185.359375 C 404.660156 185.089844 404.570312 184.761719 404.570312 184.371094 C 404.570312 183.640625 404.828125 183.089844 405.339844 182.71875 C 405.859375 182.339844 406.609375 182.148438 407.589844 182.148438 C 408.460938 182.148438 409.148438 182.308594 409.660156 182.621094 C 410.179688 182.921875 410.511719 183.410156 410.648438 184.089844 L 409.460938 184.230469 C 409.390625 183.890625 409.191406 183.621094 408.871094 183.429688 C 408.550781 183.25 408.128906 183.148438 407.589844 183.148438 C 406.988281 183.148438 406.550781 183.238281 406.269531 183.421875 C 405.988281 183.601562 405.851562 183.871094 405.851562 184.230469 C 405.851562 184.460938 405.910156 184.648438 406.019531 184.789062 C 406.140625 184.941406 406.308594 185.058594 406.539062 185.171875 C 406.769531 185.269531 407.25 185.410156 407.988281 185.589844 C 408.691406 185.769531 409.191406 185.929688 409.488281 186.089844 C 409.800781 186.238281 410.050781 186.398438 410.230469 186.578125 C 410.410156 186.75 410.550781 186.960938 410.648438 187.199219 C 410.738281 187.441406 410.789062 187.710938 410.789062 188.011719 Z M 410.789062 188.011719 "/>
<path fill="none" stroke-width="1" stroke-linecap="butt" stroke-linejoin="miter" stroke="rgb(0%, 0%, 0%)" stroke-opacity="1" stroke-dasharray="6 2" stroke-miterlimit="1.45" d="M 215.960938 404.039062 L 450.078125 404.039062 L 450.078125 466.878906 L 215.960938 466.878906 Z M 215.960938 404.039062 " transform="matrix(1, 0, 0, 1, -35, -311)"/>
<path fill-rule="nonzero" fill="rgb(0%, 0%, 0%)" fill-opacity="1" d="M 354.238281 152.558594 L 348.71875 143.761719 L 348.75 144.480469 L 348.789062 145.699219 L 348.789062 152.558594 L 347.550781 152.558594 L 347.550781 142.25 L 349.179688 142.25 L 354.75 151.089844 C 354.691406 150.128906 354.660156 149.441406 354.660156 149.011719 L 354.660156 142.25 L 355.929688 142.25 L 355.929688 152.558594 Z M 364.871094 148.589844 C 364.871094 149.980469 364.558594 151.011719 363.949219 151.691406 C 363.328125 152.359375 362.449219 152.699219 361.289062 152.699219 C 360.128906 152.699219 359.261719 152.351562 358.671875 151.648438 C 358.070312 150.949219 357.769531 149.921875 357.769531 148.589844 C 357.769531 145.851562 358.960938 144.480469 361.339844 144.480469 C 362.550781 144.480469 363.441406 144.820312 364.011719 145.480469 C 364.578125 146.148438 364.871094 147.191406 364.871094 148.589844 Z M 363.480469 148.589844 C 363.480469 147.5 363.320312 146.710938 362.988281 146.21875 C 362.671875 145.71875 362.121094 145.46875 361.351562 145.46875 C 360.578125 145.46875 360.019531 145.71875 359.679688 146.230469 C 359.339844 146.730469 359.171875 147.519531 359.171875 148.589844 C 359.171875 149.628906 359.328125 150.421875 359.671875 150.949219 C 360.011719 151.46875 360.550781 151.730469 361.269531 151.730469 C 362.070312 151.730469 362.628906 151.480469 362.960938 150.980469 C 363.308594 150.46875 363.480469 149.671875 363.480469 148.589844 Z M 366.539062 152.558594 L 366.539062 146.480469 C 366.539062 145.921875 366.519531 145.300781 366.488281 144.640625 L 367.730469 144.640625 C 367.769531 145.53125 367.789062 146.070312 367.789062 146.25 L 367.820312 146.25 C 368.03125 145.570312 368.269531 145.109375 368.539062 144.859375 C 368.820312 144.609375 369.210938 144.480469 369.710938 144.480469 C 369.878906 144.480469 370.050781 144.511719 370.238281 144.558594 L 370.238281 145.761719 C 370.070312 145.71875 369.828125 145.699219 369.539062 145.699219 C 368.988281 145.699219 368.570312 145.941406 368.269531 146.398438 C 367.988281 146.871094 367.851562 147.550781 367.851562 148.441406 L 367.851562 152.558594 Z M 374.550781 152.5 C 374.109375 152.621094 373.660156 152.691406 373.210938 152.691406 C 372.148438 152.691406 371.628906 152.089844 371.628906 150.890625 L 371.628906 145.589844 L 370.71875 145.589844 L 370.71875 144.640625 L 371.671875 144.640625 L 372.070312 142.859375 L 372.960938 142.859375 L 372.960938 144.640625 L 374.410156 144.640625 L 374.410156 145.589844 L 372.960938 145.589844 L 372.960938 150.589844 C 372.960938 150.980469 373.011719 151.25 373.128906 151.398438 C 373.25 151.550781 373.46875 151.621094 373.78125 151.621094 C 373.960938 151.621094 374.21875 151.589844 374.550781 151.53125 Z M 376.980469 146 C 377.261719 145.480469 377.601562 145.101562 378 144.859375 C 378.390625 144.609375 378.898438 144.480469 379.511719 144.480469 C 380.371094 144.480469 381 144.699219 381.398438 145.121094 C 381.820312 145.550781 382.03125 146.269531 382.03125 147.28125 L 382.03125 152.558594 L 380.699219 152.558594 L 380.699219 147.53125 C 380.699219 146.980469 380.648438 146.570312 380.550781 146.289062 C 380.441406 146.019531 380.269531 145.828125 380.03125 145.699219 C 379.800781 145.578125 379.480469 145.511719 379.058594 145.511719 C 378.449219 145.511719 377.949219 145.730469 377.578125 146.148438 C 377.199219 146.578125 377.011719 147.160156 377.011719 147.890625 L 377.011719 152.558594 L 375.699219 152.558594 L 375.699219 141.691406 L 377.011719 141.691406 L 377.011719 144.511719 C 377.011719 144.820312 377 145.128906 376.980469 145.449219 C 376.96875 145.761719 376.960938 145.949219 376.949219 146 Z M 394.878906 148.558594 C 394.878906 151.320312 393.910156 152.699219 391.960938 152.699219 C 391.359375 152.699219 390.859375 152.601562 390.460938 152.390625 C 390.070312 152.171875 389.738281 151.820312 389.488281 151.328125 L 389.480469 151.328125 C 389.480469 151.480469 389.46875 151.71875 389.449219 152.03125 C 389.421875 152.328125 389.410156 152.511719 389.398438 152.558594 L 388.128906 152.558594 C 388.160156 152.300781 388.179688 151.75 388.179688 150.921875 L 388.179688 141.691406 L 389.488281 141.691406 L 389.488281 144.789062 C 389.488281 145.109375 389.480469 145.480469 389.460938 145.898438 L 389.488281 145.898438 C 389.738281 145.398438 390.070312 145.039062 390.460938 144.828125 C 390.871094 144.601562 391.371094 144.480469 391.960938 144.480469 C 392.960938 144.480469 393.699219 144.820312 394.160156 145.5 C 394.640625 146.171875 394.878906 147.199219 394.878906 148.558594 Z M 393.488281 148.609375 C 393.488281 147.488281 393.351562 146.699219 393.058594 146.230469 C 392.761719 145.75 392.28125 145.511719 391.621094 145.511719 C 390.878906 145.511719 390.339844 145.769531 389.988281 146.28125 C 389.660156 146.78125 389.488281 147.578125 389.488281 148.691406 C 389.488281 149.730469 389.660156 150.5 389.988281 151 C 390.328125 151.488281 390.871094 151.730469 391.621094 151.730469 C 392.269531 151.730469 392.75 151.488281 393.039062 151 C 393.339844 150.511719 393.488281 149.710938 393.488281 148.609375 Z M 397.800781 144.640625 L 397.800781 149.648438 C 397.800781 150.191406 397.859375 150.601562 397.960938 150.890625 C 398.058594 151.171875 398.230469 151.371094 398.441406 151.5 C 398.671875 151.621094 399.011719 151.691406 399.441406 151.691406 C 400.078125 151.691406 400.578125 151.46875 400.941406 151.039062 C 401.308594 150.609375 401.488281 150 401.488281 149.230469 L 401.488281 144.640625 L 402.800781 144.640625 L 402.800781 150.871094 C 402.800781 151.789062 402.820312 152.351562 402.851562 152.558594 L 401.601562 152.558594 C 401.601562 152.539062 401.601562 152.480469 401.578125 152.371094 C 401.578125 152.261719 401.578125 152.128906 401.570312 152 C 401.570312 151.851562 401.558594 151.589844 401.550781 151.199219 L 401.519531 151.199219 C 401.21875 151.75 400.871094 152.140625 400.480469 152.371094 C 400.078125 152.589844 399.578125 152.699219 398.988281 152.699219 C 398.128906 152.699219 397.488281 152.488281 397.078125 152.058594 C 396.679688 151.621094 396.480469 150.910156 396.480469 149.921875 L 396.480469 144.640625 Z M 410.800781 150.371094 C 410.800781 151.121094 410.519531 151.699219 409.960938 152.109375 C 409.398438 152.5 408.609375 152.699219 407.601562 152.699219 C 406.609375 152.699219 405.839844 152.539062 405.300781 152.21875 C 404.769531 151.890625 404.429688 151.390625 404.269531 150.699219 L 405.429688 150.46875 C 405.539062 150.890625 405.78125 151.210938 406.128906 151.398438 C 406.480469 151.601562 406.96875 151.699219 407.601562 151.699219 C 408.269531 151.699219 408.75 151.601562 409.050781 151.398438 C 409.359375 151.199219 409.519531 150.878906 409.519531 150.46875 C 409.519531 150.148438 409.410156 149.898438 409.191406 149.71875 C 408.980469 149.519531 408.640625 149.359375 408.160156 149.230469 L 407.21875 148.980469 C 406.460938 148.78125 405.921875 148.589844 405.601562 148.398438 C 405.289062 148.21875 405.039062 147.988281 404.851562 147.71875 C 404.671875 147.449219 404.578125 147.121094 404.578125 146.730469 C 404.578125 146 404.839844 145.449219 405.351562 145.078125 C 405.871094 144.699219 406.621094 144.511719 407.601562 144.511719 C 408.46875 144.511719 409.171875 144.671875 409.679688 144.980469 C 410.199219 145.28125 410.53125 145.769531 410.660156 146.449219 L 409.46875 146.589844 C 409.398438 146.25 409.199219 145.980469 408.878906 145.789062 C 408.570312 145.609375 408.140625 145.511719 407.601562 145.511719 C 407.011719 145.511719 406.570312 145.601562 406.289062 145.78125 C 406.011719 145.960938 405.859375 146.230469 405.859375 146.589844 C 405.859375 146.820312 405.921875 147.011719 406.039062 147.148438 C 406.148438 147.300781 406.320312 147.421875 406.550781 147.53125 C 406.78125 147.628906 407.269531 147.769531 408.011719 147.949219 C 408.699219 148.128906 409.199219 148.289062 409.511719 148.449219 C 409.820312 148.601562 410.058594 148.761719 410.238281 148.941406 C 410.429688 149.109375 410.570312 149.320312 410.660156 149.558594 C 410.761719 149.800781 410.800781 150.070312 410.800781 150.371094 Z M 410.800781 150.371094 "/>
<path fill="none" stroke-width="1" stroke-linecap="butt" stroke-linejoin="miter" stroke="rgb(0%, 0%, 0%)" stroke-opacity="1" stroke-dasharray="6 2" stroke-miterlimit="1.45" d="M 80.320312 445.878906 L 199.238281 445.878906 L 199.238281 508.71875 L 80.320312 508.71875 Z M 80.320312 445.878906 " transform="matrix(1, 0, 0, 1, -35, -311)"/>
<path fill-rule="nonzero" fill="rgb(0%, 0%, 0%)" fill-opacity="1" d="M 71.871094 194.898438 L 70.699219 191.878906 L 65.988281 191.878906 L 64.804688 194.898438 L 63.351562 194.898438 L 67.558594 184.589844 L 69.148438 184.589844 L 73.289062 194.898438 Z M 68.339844 185.628906 L 68.269531 185.839844 C 68.148438 186.238281 67.96875 186.761719 67.730469 187.398438 L 66.410156 190.789062 L 70.269531 190.789062 L 68.949219 187.378906 C 68.808594 187.050781 68.671875 186.671875 68.539062 186.238281 Z M 79.371094 194.898438 L 79.371094 189.871094 C 79.371094 189.351562 79.320312 188.949219 79.21875 188.671875 C 79.109375 188.371094 78.949219 188.171875 78.71875 188.039062 C 78.5 187.921875 78.171875 187.851562 77.730469 187.851562 C 77.101562 187.851562 76.601562 188.070312 76.230469 188.511719 C 75.871094 188.941406 75.679688 189.539062 75.679688 190.308594 L 75.679688 194.898438 L 74.371094 194.898438 L 74.371094 188.671875 C 74.371094 187.738281 74.359375 187.179688 74.328125 186.980469 L 75.558594 186.980469 C 75.570312 187 75.578125 187.070312 75.578125 187.179688 C 75.589844 187.289062 75.589844 187.410156 75.589844 187.539062 C 75.601562 187.679688 75.609375 187.941406 75.621094 188.339844 L 75.648438 188.339844 C 75.960938 187.789062 76.300781 187.390625 76.699219 187.171875 C 77.101562 186.941406 77.589844 186.820312 78.179688 186.820312 C 79.050781 186.820312 79.679688 187.039062 80.089844 187.480469 C 80.5 187.910156 80.699219 188.621094 80.699219 189.621094 L 80.699219 194.898438 Z M 85.730469 194.839844 C 85.289062 194.960938 84.839844 195.03125 84.390625 195.03125 C 83.328125 195.03125 82.808594 194.429688 82.808594 193.230469 L 82.808594 187.929688 L 81.898438 187.929688 L 81.898438 186.980469 L 82.859375 186.980469 L 83.25 185.199219 L 84.140625 185.199219 L 84.140625 186.980469 L 85.589844 186.980469 L 85.589844 187.929688 L 84.140625 187.929688 L 84.140625 192.929688 C 84.140625 193.320312 84.191406 193.589844 84.308594 193.738281 C 84.429688 193.890625 84.648438 193.960938 84.960938 193.960938 C 85.140625 193.960938 85.398438 193.929688 85.730469 193.871094 Z M 87.851562 191.210938 C 87.851562 192.121094 88.039062 192.820312 88.410156 193.320312 C 88.800781 193.808594 89.351562 194.058594 90.070312 194.058594 C 90.640625 194.058594 91.101562 193.941406 91.441406 193.710938 C 91.789062 193.480469 92.019531 193.191406 92.148438 192.839844 L 93.300781 193.171875 C 92.820312 194.421875 91.75 195.039062 90.070312 195.039062 C 88.890625 195.039062 88 194.691406 87.378906 193.988281 C 86.78125 193.300781 86.480469 192.261719 86.480469 190.878906 C 86.480469 189.570312 86.78125 188.570312 87.378906 187.871094 C 88 187.171875 88.878906 186.820312 90.019531 186.820312 C 92.351562 186.820312 93.511719 188.230469 93.511719 191.039062 L 93.511719 191.210938 Z M 92.148438 190.210938 C 92.070312 189.371094 91.859375 188.761719 91.511719 188.378906 C 91.160156 188 90.660156 187.808594 89.988281 187.808594 C 89.359375 187.808594 88.851562 188.019531 88.480469 188.449219 C 88.101562 188.871094 87.898438 189.460938 87.871094 190.210938 Z M 100.21875 194.898438 L 100.21875 189.871094 C 100.21875 189.351562 100.171875 188.949219 100.070312 188.671875 C 99.960938 188.371094 99.800781 188.171875 99.570312 188.039062 C 99.351562 187.921875 99.019531 187.851562 98.578125 187.851562 C 97.949219 187.851562 97.449219 188.070312 97.078125 188.511719 C 96.71875 188.941406 96.539062 189.539062 96.539062 190.308594 L 96.539062 194.898438 L 95.21875 194.898438 L 95.21875 188.671875 C 95.21875 187.738281 95.210938 187.179688 95.179688 186.980469 L 96.410156 186.980469 C 96.421875 187 96.429688 187.070312 96.429688 187.179688 C 96.441406 187.289062 96.441406 187.410156 96.441406 187.539062 C 96.449219 187.679688 96.460938 187.941406 96.46875 188.339844 L 96.511719 188.339844 C 96.808594 187.789062 97.160156 187.390625 97.550781 187.171875 C 97.949219 186.941406 98.441406 186.820312 99.039062 186.820312 C 99.898438 186.820312 100.539062 187.039062 100.941406 187.480469 C 101.351562 187.910156 101.550781 188.621094 101.550781 189.621094 L 101.550781 194.898438 Z M 108.570312 194.898438 L 108.570312 189.871094 C 108.570312 189.351562 108.511719 188.949219 108.410156 188.671875 C 108.308594 188.371094 108.140625 188.171875 107.910156 188.039062 C 107.691406 187.921875 107.359375 187.851562 106.929688 187.851562 C 106.289062 187.851562 105.789062 188.070312 105.429688 188.511719 C 105.058594 188.941406 104.878906 189.539062 104.878906 190.308594 L 104.878906 194.898438 L 103.570312 194.898438 L 103.570312 188.671875 C 103.570312 187.738281 103.550781 187.179688 103.519531 186.980469 L 104.75 186.980469 C 104.761719 187 104.769531 187.070312 104.769531 187.179688 C 104.78125 187.289062 104.789062 187.410156 104.789062 187.539062 C 104.800781 187.679688 104.808594 187.941406 104.820312 188.339844 L 104.851562 188.339844 C 105.148438 187.789062 105.5 187.390625 105.890625 187.171875 C 106.289062 186.941406 106.789062 186.820312 107.378906 186.820312 C 108.238281 186.820312 108.878906 187.039062 109.289062 187.480469 C 109.691406 187.910156 109.890625 188.621094 109.890625 189.621094 L 109.890625 194.898438 Z M 113.890625 195.039062 C 113.101562 195.039062 112.5 194.828125 112.101562 194.421875 C 111.699219 194 111.5 193.421875 111.5 192.679688 C 111.5 191.871094 111.769531 191.238281 112.300781 190.808594 C 112.839844 190.359375 113.71875 190.121094 114.921875 190.089844 L 116.710938 190.070312 L 116.710938 189.628906 C 116.710938 188.988281 116.570312 188.53125 116.28125 188.261719 C 116.011719 187.980469 115.589844 187.839844 115 187.839844 C 114.410156 187.839844 113.980469 187.941406 113.710938 188.128906 C 113.449219 188.328125 113.28125 188.648438 113.21875 189.089844 L 111.851562 188.960938 C 112.078125 187.539062 113.140625 186.820312 115.03125 186.820312 C 116.019531 186.820312 116.769531 187.050781 117.269531 187.511719 C 117.78125 187.96875 118.03125 188.628906 118.03125 189.488281 L 118.03125 192.898438 C 118.03125 193.300781 118.089844 193.589844 118.191406 193.789062 C 118.289062 193.988281 118.488281 194.089844 118.769531 194.089844 C 118.890625 194.089844 119.039062 194.070312 119.210938 194.039062 L 119.210938 194.851562 C 118.871094 194.941406 118.53125 194.980469 118.191406 194.980469 C 117.699219 194.980469 117.339844 194.851562 117.109375 194.589844 C 116.890625 194.328125 116.769531 193.929688 116.738281 193.378906 L 116.710938 193.378906 C 116.359375 193.988281 115.96875 194.421875 115.519531 194.671875 C 115.070312 194.921875 114.53125 195.039062 113.890625 195.039062 Z M 114.191406 194.058594 C 114.679688 194.058594 115.109375 193.949219 115.488281 193.730469 C 115.859375 193.511719 116.160156 193.210938 116.378906 192.820312 C 116.601562 192.441406 116.710938 192.039062 116.710938 191.628906 L 116.710938 190.988281 L 115.25 191.03125 C 114.640625 191.03125 114.171875 191.089844 113.851562 191.210938 C 113.519531 191.328125 113.28125 191.511719 113.109375 191.761719 C 112.949219 192 112.859375 192.320312 112.859375 192.710938 C 112.859375 193.140625 112.980469 193.46875 113.210938 193.710938 C 113.441406 193.941406 113.761719 194.058594 114.191406 194.058594 Z M 124.390625 194.898438 L 124.390625 184.03125 L 125.699219 184.03125 L 125.699219 194.898438 Z M 127.699219 194.898438 L 127.699219 186.980469 L 129.03125 186.980469 L 129.03125 194.898438 Z M 127.699219 185.289062 L 127.699219 184.03125 L 129.03125 184.03125 L 129.03125 185.289062 Z M 136.078125 194.898438 L 136.078125 189.871094 C 136.078125 189.351562 136.03125 188.949219 135.929688 188.671875 C 135.820312 188.371094 135.660156 188.171875 135.429688 188.039062 C 135.210938 187.921875 134.878906 187.851562 134.441406 187.851562 C 133.808594 187.851562 133.308594 188.070312 132.941406 188.511719 C 132.578125 188.941406 132.398438 189.539062 132.398438 190.308594 L 132.398438 194.898438 L 131.078125 194.898438 L 131.078125 188.671875 C 131.078125 187.738281 131.070312 187.179688 131.039062 186.980469 L 132.269531 186.980469 C 132.28125 187 132.289062 187.070312 132.289062 187.179688 C 132.300781 187.289062 132.300781 187.410156 132.300781 187.539062 C 132.308594 187.679688 132.320312 187.941406 132.328125 188.339844 L 132.371094 188.339844 C 132.671875 187.789062 133.019531 187.390625 133.410156 187.171875 C 133.808594 186.941406 134.300781 186.820312 134.898438 186.820312 C 135.761719 186.820312 136.398438 187.039062 136.800781 187.480469 C 137.210938 187.910156 137.410156 188.621094 137.410156 189.621094 L 137.410156 194.898438 Z M 144.359375 194.898438 L 141.679688 191.28125 L 140.710938 192.089844 L 140.710938 194.898438 L 139.390625 194.898438 L 139.390625 184.03125 L 140.710938 184.03125 L 140.710938 190.820312 L 144.191406 186.980469 L 145.738281 186.980469 L 142.519531 190.378906 L 145.890625 194.898438 Z M 144.359375 194.898438 "/>
<path fill="none" stroke-width="1" stroke-linecap="butt" stroke-linejoin="miter" stroke="rgb(0%, 0%, 0%)" stroke-opacity="1" stroke-miterlimit="1.45" d="M 310 410 L 310 430 L 440.558594 430 " transform="matrix(1, 0, 0, 1, -35, -311)"/>
<path fill="none" stroke-width="1" stroke-linecap="butt" stroke-linejoin="miter" stroke="rgb(0%, 0%, 0%)" stroke-opacity="1" stroke-miterlimit="1.45" d="M 405.28125 410 L 405.28125 430 L 440.558594 430 " transform="matrix(1, 0, 0, 1, -35, -311)"/>
<path fill="none" stroke-width="1" stroke-linecap="butt" stroke-linejoin="miter" stroke="rgb(0%, 0%, 0%)" stroke-opacity="1" stroke-miterlimit="1.45" d="M 310 543.71875 L 310 526.921875 L 440.558594 526.921875 " transform="matrix(1, 0, 0, 1, -35, -311)"/>
<path fill="none" stroke-width="1" stroke-linecap="butt" stroke-linejoin="miter" stroke="rgb(0%, 0%, 0%)" stroke-opacity="1" stroke-miterlimit="1.45" d="M 405.28125 543.71875 L 405.28125 526.921875 L 440.558594 526.921875 " transform="matrix(1, 0, 0, 1, -35, -311)"/>
<path fill="none" stroke-width="1" stroke-linecap="butt" stroke-linejoin="miter" stroke="rgb(0%, 0%, 0%)" stroke-opacity="1" stroke-miterlimit="1.45" d="M 228.410156 458.289062 L 253 430 L 440.558594 430 " transform="matrix(1, 0, 0, 1, -35, -311)"/>
<path fill="none" stroke-width="1" stroke-linecap="butt" stroke-linejoin="miter" stroke="rgb(0%, 0%, 0%)" stroke-opacity="1" stroke-miterlimit="1.45" d="M 227.691406 496.851562 L 252 526.921875 L 440.558594 526.921875 " transform="matrix(1, 0, 0, 1, -35, -311)"/>
<path fill="none" stroke-width="3" stroke-linecap="butt" stroke-linejoin="miter" stroke="rgb(0%, 0%, 0%)" stroke-opacity="1" stroke-miterlimit="1.45" d="M 186 477.300781 L 175.960938 477.300781 " transform="matrix(1, 0, 0, 1, -35, -311)"/>
<path fill="none" stroke-width="3" stroke-linecap="butt" stroke-linejoin="miter" stroke="rgb(0%, 0%, 0%)" stroke-opacity="1" stroke-miterlimit="1.45" d="M 91.960938 477.300781 L 101.640625 477.300781 " transform="matrix(1, 0, 0, 1, -35, -311)"/>
<path fill="none" stroke-width="3" stroke-linecap="butt" stroke-linejoin="miter" stroke="rgb(0%, 0%, 0%)" stroke-opacity="1" stroke-dasharray="18 6" stroke-miterlimit="1.45" d="M 106.679688 477.300781 L 170.921875 477.300781 " transform="matrix(1, 0, 0, 1, -35, -311)"/>
</svg>
