<?xml version="1.0" encoding="UTF-8"?>
<svg xmlns="http://www.w3.org/2000/svg" xmlns:xlink="http://www.w3.org/1999/xlink" width="237.72" height="87.088" viewBox="0 0 237.72 87.088">
<defs>
<g>
<g id="glyph-0-0">
<path d="M 0.828125 0 L 1.625 0 L 1.625 -3.234375 L 3.15625 -3.234375 C 4.234375 -3.234375 4.8125 -3.375 5.296875 -3.71875 C 5.8125 -4.109375 6.09375 -4.765625 6.09375 -5.5625 C 6.09375 -6.484375 5.75 -7.203125 5.15625 -7.5625 C 4.65625 -7.859375 4.046875 -7.984375 3.015625 -7.984375 L 0.828125 -7.984375 Z M 1.625 -3.953125 L 1.625 -7.25 L 2.75 -7.25 C 3.671875 -7.25 4.25 -7.1875 4.5625 -7.015625 C 5.03125 -6.78125 5.296875 -6.265625 5.296875 -5.5625 C 5.296875 -4.9375 5.046875 -4.453125 4.625 -4.21875 C 4.296875 -4.03125 3.828125 -3.953125 3.09375 -3.953125 Z M 1.625 -3.953125 "/>
</g>
<g id="glyph-0-1">
<path d="M 0.6875 0 L 1.484375 0 L 1.484375 -3.4375 C 1.484375 -4.546875 2.046875 -5.15625 3.15625 -5.265625 L 3.15625 -6.046875 C 2.296875 -6 1.796875 -5.71875 1.484375 -5.0625 L 1.484375 -5.90625 L 0.6875 -5.90625 Z M 0.6875 0 "/>
</g>
<g id="glyph-0-2">
<path d="M 3.546875 -6.046875 C 1.796875 -6.046875 0.453125 -4.71875 0.453125 -2.984375 C 0.453125 -1.171875 1.78125 0.140625 3.609375 0.140625 C 5.34375 0.140625 6.625 -1.171875 6.625 -2.9375 C 6.625 -4.734375 5.328125 -6.046875 3.546875 -6.046875 Z M 3.546875 -5.3125 C 4.84375 -5.3125 5.8125 -4.296875 5.8125 -2.921875 C 5.8125 -1.578125 4.875 -0.59375 3.59375 -0.59375 C 2.234375 -0.59375 1.265625 -1.59375 1.265625 -2.96875 C 1.265625 -4.3125 2.25 -5.3125 3.546875 -5.3125 Z M 3.546875 -5.3125 "/>
</g>
<g id="glyph-0-3">
<path d="M 5.65625 -1.734375 C 5.046875 -0.921875 4.46875 -0.59375 3.640625 -0.59375 C 2.3125 -0.59375 1.265625 -1.640625 1.265625 -2.953125 C 1.265625 -4.28125 2.28125 -5.3125 3.609375 -5.3125 C 4.484375 -5.3125 5.203125 -4.890625 5.65625 -4.109375 L 6.546875 -4.109375 C 6.078125 -5.296875 4.9375 -6.046875 3.609375 -6.046875 C 1.84375 -6.046875 0.453125 -4.6875 0.453125 -2.96875 C 0.453125 -1.203125 1.859375 0.140625 3.671875 0.140625 C 4.40625 0.140625 5.078125 -0.09375 5.640625 -0.53125 C 6.015625 -0.828125 6.234375 -1.125 6.5625 -1.734375 Z M 5.65625 -1.734375 "/>
</g>
<g id="glyph-0-4">
<path d="M 6.59375 -2.6875 C 6.59375 -3.5 6.484375 -4 6.203125 -4.515625 C 5.671875 -5.453125 4.640625 -6.046875 3.515625 -6.046875 C 1.796875 -6.046875 0.453125 -4.703125 0.453125 -2.984375 C 0.453125 -1.234375 1.828125 0.140625 3.578125 0.140625 C 4.328125 0.140625 5.046875 -0.140625 5.578125 -0.640625 C 6 -1.046875 6.28125 -1.453125 6.453125 -1.9375 L 5.609375 -1.9375 C 5.28125 -1.140625 4.453125 -0.59375 3.546875 -0.59375 C 2.34375 -0.59375 1.3125 -1.515625 1.25 -2.6875 Z M 1.28125 -3.40625 C 1.484375 -4.546875 2.390625 -5.3125 3.515625 -5.3125 C 4.65625 -5.3125 5.53125 -4.59375 5.796875 -3.40625 Z M 1.28125 -3.40625 "/>
</g>
<g id="glyph-0-5">
<path d="M 0.1875 -1.734375 C 0.203125 -0.59375 0.953125 0.140625 2.09375 0.140625 C 3.15625 0.140625 3.890625 -0.609375 3.890625 -1.6875 C 3.890625 -2.421875 3.5625 -2.921875 2.875 -3.203125 C 1.96875 -3.578125 1.9375 -3.59375 1.765625 -3.6875 C 1.390625 -3.859375 1.21875 -4.109375 1.21875 -4.453125 C 1.21875 -4.9375 1.59375 -5.3125 2.078125 -5.3125 C 2.59375 -5.3125 2.890625 -5.015625 2.9375 -4.453125 L 3.75 -4.453125 C 3.71875 -5.390625 3.03125 -6.046875 2.078125 -6.046875 C 1.125 -6.046875 0.40625 -5.34375 0.40625 -4.390625 C 0.40625 -3.96875 0.5625 -3.59375 0.859375 -3.328125 C 1.09375 -3.09375 1.109375 -3.09375 1.9375 -2.75 C 2.296875 -2.609375 2.5625 -2.484375 2.703125 -2.390625 C 2.953125 -2.21875 3.09375 -1.9375 3.09375 -1.625 C 3.09375 -1.03125 2.671875 -0.59375 2.09375 -0.59375 C 1.4375 -0.59375 1.03125 -1.015625 0.984375 -1.734375 Z M 0.1875 -1.734375 "/>
</g>
<g id="glyph-0-6">
<path d="M 5.765625 -3.21875 L 4.4375 -3.21875 L 4.734375 -4.890625 L 5.921875 -4.890625 L 5.921875 -5.546875 L 4.859375 -5.546875 L 5.296875 -7.984375 L 4.578125 -7.984375 L 4.140625 -5.546875 L 2.390625 -5.546875 L 2.828125 -7.984375 L 2.140625 -7.984375 L 1.6875 -5.546875 L 0.234375 -5.546875 L 0.234375 -4.890625 L 1.5625 -4.890625 L 1.25 -3.21875 L 0.046875 -3.21875 L 0.046875 -2.5625 L 1.125 -2.5625 L 0.640625 0 L 1.34375 0 L 1.828125 -2.5625 L 3.59375 -2.5625 L 3.125 0 L 3.84375 0 L 4.3125 -2.5625 L 5.765625 -2.5625 Z M 4.03125 -4.890625 L 3.71875 -3.21875 L 1.953125 -3.21875 L 2.265625 -4.890625 Z M 4.03125 -4.890625 "/>
</g>
<g id="glyph-0-7">
<path d="M 3.03125 0 L 3.828125 0 L 3.828125 -7.984375 L 1.671875 -7.984375 L 1.671875 -7.25 L 3.03125 -7.25 Z M 3.03125 0 "/>
</g>
<g id="glyph-0-8">
<path d="M 1.1875 0 L 2.03125 0 L 5.296875 -7.25 L 5.296875 -7.984375 L 0.6875 -7.984375 L 0.6875 -7.25 L 4.46875 -7.25 Z M 1.1875 0 "/>
</g>
<g id="glyph-0-9">
<path d="M 4.171875 0 L 4.953125 0 L 4.953125 -1.453125 L 5.6875 -1.453125 L 5.6875 -2.1875 L 4.953125 -2.1875 L 4.953125 -7.984375 L 4.015625 -7.984375 L 0.125 -2.1875 L 0.125 -1.453125 L 4.171875 -1.453125 Z M 4.171875 -2.1875 L 1.046875 -2.1875 L 4.171875 -6.875 Z M 4.171875 -2.1875 "/>
</g>
<g id="glyph-0-10">
<path d="M 0.328125 -2.90625 C 0.328125 -2.109375 0.453125 -1.5 0.71875 -1.0625 C 1.171875 -0.265625 1.984375 0.140625 3.0625 0.140625 C 4.015625 0.140625 4.734375 -0.1875 5.1875 -0.859375 C 5.5 -1.3125 5.671875 -2.015625 5.671875 -2.90625 L 5.671875 -5.171875 C 5.671875 -6.078125 5.546875 -6.5625 5.203125 -7.046875 C 4.734375 -7.734375 3.9375 -8.125 2.984375 -8.125 C 2.09375 -8.125 1.359375 -7.8125 0.890625 -7.21875 C 0.5 -6.71875 0.328125 -6.109375 0.328125 -5.171875 Z M 4.875 -3.03125 C 4.875 -2.328125 4.796875 -1.78125 4.625 -1.453125 C 4.34375 -0.890625 3.75 -0.578125 3.015625 -0.578125 C 2.34375 -0.578125 1.796875 -0.84375 1.46875 -1.34375 C 1.21875 -1.6875 1.109375 -2.21875 1.109375 -3.03125 L 1.109375 -4.984375 C 1.109375 -5.734375 1.203125 -6.21875 1.390625 -6.546875 C 1.703125 -7.078125 2.296875 -7.390625 3 -7.390625 C 3.625 -7.390625 4.171875 -7.140625 4.515625 -6.6875 C 4.78125 -6.3125 4.875 -5.859375 4.875 -4.984375 Z M 4.875 -3.03125 "/>
</g>
<g id="glyph-0-11">
<path d="M 1.671875 -6 C 1.6875 -6.875 2.125 -7.390625 2.90625 -7.390625 C 3.609375 -7.390625 4.109375 -6.875 4.109375 -6.125 C 4.109375 -5.375 3.578125 -4.875 2.75 -4.875 C 2.71875 -4.875 2.640625 -4.875 2.546875 -4.890625 L 2.359375 -4.90625 L 2.359375 -4.1875 C 2.890625 -4.171875 3.078125 -4.171875 3.296875 -4.125 C 4.09375 -3.9375 4.640625 -3.21875 4.640625 -2.375 C 4.640625 -1.359375 3.890625 -0.578125 2.921875 -0.578125 C 2.3125 -0.578125 1.796875 -0.859375 1.453125 -1.359375 C 1.265625 -1.65625 1.1875 -1.921875 1.140625 -2.5 L 0.359375 -2.5 C 0.375 -1.90625 0.46875 -1.515625 0.703125 -1.109375 C 1.140625 -0.328125 1.984375 0.140625 2.9375 0.140625 C 4.34375 0.140625 5.4375 -0.984375 5.4375 -2.421875 C 5.4375 -3.375 4.984375 -4.109375 4.09375 -4.5625 C 4.65625 -4.953125 4.90625 -5.4375 4.90625 -6.09375 C 4.90625 -7.28125 4.078125 -8.125 2.90625 -8.125 C 1.703125 -8.125 0.921875 -7.296875 0.890625 -6 Z M 1.671875 -6 "/>
</g>
<g id="glyph-0-12">
<path d="M 0.828125 0 L 2.96875 0 C 4.171875 0 5.015625 -0.1875 5.71875 -0.59375 C 6.921875 -1.3125 7.5625 -2.46875 7.5625 -3.96875 C 7.5625 -5.46875 6.9375 -6.65625 5.75 -7.359375 C 4.984375 -7.8125 4.140625 -7.984375 2.703125 -7.984375 L 0.828125 -7.984375 Z M 1.625 -0.71875 L 1.625 -7.25 L 2.734375 -7.25 C 3.9375 -7.25 4.703125 -7.109375 5.296875 -6.734375 C 6.21875 -6.1875 6.75 -5.1875 6.75 -4 C 6.75 -2.953125 6.34375 -2.03125 5.609375 -1.4375 C 4.96875 -0.921875 4.140625 -0.71875 2.734375 -0.71875 Z M 1.625 -0.71875 "/>
</g>
<g id="glyph-0-13">
<path d="M 2.5625 0 L 3.40625 0 L 5.890625 -5.90625 L 5.078125 -5.90625 L 2.96875 -0.9375 L 0.890625 -5.90625 L 0.09375 -5.90625 Z M 2.5625 0 "/>
</g>
<g id="glyph-0-14">
<path d="M 0.6875 0 L 1.484375 0 L 1.484375 -5.90625 L 0.6875 -5.90625 Z M 0.6875 -6.625 L 1.484375 -6.625 L 1.484375 -7.984375 L 0.6875 -7.984375 Z M 0.6875 -6.625 "/>
</g>
<g id="glyph-0-15">
<path d="M 0.71875 -4.046875 L 1.34375 -3.8125 C 1.828125 -4.421875 2.359375 -4.703125 2.984375 -4.703125 C 4.078125 -4.703125 4.90625 -3.828125 4.90625 -2.65625 C 4.90625 -1.484375 4.0625 -0.578125 2.984375 -0.578125 C 1.984375 -0.578125 1.203125 -1.375 1.0625 -2.5 L 0.28125 -2.5 C 0.359375 -1.96875 0.40625 -1.765625 0.546875 -1.453125 C 1.015625 -0.46875 1.953125 0.140625 3.015625 0.140625 C 4.53125 0.140625 5.703125 -1.09375 5.703125 -2.65625 C 5.703125 -4.203125 4.546875 -5.4375 3.0625 -5.4375 C 2.578125 -5.4375 2.171875 -5.328125 1.6875 -5.046875 L 2.078125 -7.25 L 5.03125 -7.25 L 5.03125 -7.984375 L 1.4375 -7.984375 Z M 0.71875 -4.046875 "/>
</g>
<g id="glyph-0-16">
<path d="M 3.203125 -7.984375 L 1.21875 -5.046875 C 0.46875 -3.90625 0.265625 -3.421875 0.265625 -2.640625 C 0.265625 -1.046875 1.453125 0.140625 3.015625 0.140625 C 4.578125 0.140625 5.71875 -1.0625 5.71875 -2.6875 C 5.71875 -4.21875 4.59375 -5.4375 3.171875 -5.4375 C 2.84375 -5.4375 2.59375 -5.359375 2.234375 -5.203125 L 4.109375 -7.984375 Z M 3 -4.703125 C 4.109375 -4.703125 4.90625 -3.84375 4.90625 -2.65625 C 4.90625 -1.453125 4.109375 -0.578125 3.015625 -0.578125 C 1.90625 -0.578125 1.0625 -1.46875 1.0625 -2.671875 C 1.0625 -3.828125 1.90625 -4.703125 3 -4.703125 Z M 3 -4.703125 "/>
</g>
<g id="glyph-0-17">
<path d="M 1.796875 -4.453125 C 0.921875 -4.03125 0.453125 -3.28125 0.453125 -2.328125 C 0.453125 -0.921875 1.5625 0.140625 3.015625 0.140625 C 4.484375 0.140625 5.53125 -0.90625 5.53125 -2.359375 C 5.53125 -3.34375 5.046875 -4.078125 4.15625 -4.453125 C 4.796875 -4.765625 5.109375 -5.265625 5.109375 -6.0625 C 5.109375 -7.25 4.21875 -8.125 3 -8.125 C 1.796875 -8.125 0.875 -7.234375 0.875 -6.0625 C 0.875 -5.609375 1.03125 -5.171875 1.28125 -4.875 C 1.421875 -4.703125 1.53125 -4.625 1.796875 -4.453125 Z M 3 -4.046875 C 4 -4.046875 4.734375 -3.34375 4.734375 -2.328125 C 4.734375 -1.3125 4.015625 -0.578125 3.015625 -0.578125 C 1.96875 -0.578125 1.25 -1.3125 1.25 -2.328125 C 1.25 -3.34375 1.96875 -4.046875 3 -4.046875 Z M 2.984375 -7.390625 C 3.75 -7.390625 4.3125 -6.859375 4.3125 -6.09375 C 4.3125 -5.359375 3.75 -4.796875 3.03125 -4.796875 C 2.25 -4.796875 1.671875 -5.359375 1.671875 -6.125 C 1.671875 -6.859375 2.21875 -7.390625 2.984375 -7.390625 Z M 2.984375 -7.390625 "/>
</g>
<g id="glyph-0-18">
<path d="M 2.78125 0 L 4.765625 -2.9375 C 5.515625 -4.078125 5.71875 -4.5625 5.71875 -5.34375 C 5.71875 -6.9375 4.53125 -8.125 2.953125 -8.125 C 1.40625 -8.125 0.265625 -6.921875 0.265625 -5.296875 C 0.265625 -3.75 1.390625 -2.546875 2.8125 -2.546875 C 3.140625 -2.546875 3.390625 -2.609375 3.75 -2.78125 L 1.875 0 Z M 2.953125 -7.390625 C 4.078125 -7.390625 4.90625 -6.515625 4.90625 -5.296875 C 4.90625 -4.15625 4.078125 -3.265625 2.984375 -3.265625 C 1.875 -3.265625 1.0625 -4.140625 1.0625 -5.328125 C 1.0625 -6.53125 1.875 -7.390625 2.953125 -7.390625 Z M 2.953125 -7.390625 "/>
</g>
<g id="glyph-0-19">
<path d="M 0.828125 0 L 4.921875 0 L 4.921875 -0.71875 L 1.625 -0.71875 L 1.625 -7.984375 L 0.828125 -7.984375 Z M 0.828125 0 "/>
</g>
<g id="glyph-0-20">
<path d="M 0.125 0 L 0.953125 0 L 2.125 -2.6875 L 5.84375 -2.6875 L 7 0 L 7.875 0 L 4.4375 -7.984375 L 3.546875 -7.984375 Z M 2.421875 -3.40625 L 4 -7.078125 L 5.53125 -3.40625 Z M 2.421875 -3.40625 "/>
</g>
<g id="glyph-0-21">
<path d="M 0.828125 0 L 1.625 0 L 1.625 -7.015625 L 6.375 0 L 7.171875 0 L 7.171875 -7.984375 L 6.375 -7.984375 L 6.375 -1.359375 L 1.90625 -7.984375 L 0.828125 -7.984375 Z M 0.828125 0 "/>
</g>
<g id="glyph-0-22">
<path d="M 3.609375 -7.984375 C 2.984375 -7.765625 2.609375 -7.53125 2.171875 -7.078125 C 1.203125 -6.109375 0.609375 -4.703125 0.609375 -3.34375 C 0.609375 -2.21875 0.953125 -1.15625 1.65625 -0.203125 C 2.234375 0.609375 2.796875 1.046875 3.609375 1.34375 L 3.609375 0.640625 C 3.078125 0.3125 2.75 0.03125 2.4375 -0.375 C 1.796875 -1.234375 1.421875 -2.3125 1.421875 -3.34375 C 1.421875 -4.21875 1.6875 -5.125 2.21875 -5.953125 C 2.59375 -6.546875 2.984375 -6.921875 3.609375 -7.296875 Z M 3.609375 -7.984375 "/>
</g>
<g id="glyph-0-23">
<path d="M 6.6875 -5.90625 L 5.890625 -5.90625 L 5.890625 -4.859375 C 5.3125 -5.671875 4.59375 -6.046875 3.5625 -6.046875 C 1.796875 -6.046875 0.453125 -4.703125 0.453125 -2.9375 C 0.453125 -1.171875 1.796875 0.140625 3.609375 0.140625 C 4.625 0.140625 5.265625 -0.1875 5.890625 -1.03125 L 5.890625 0 L 6.6875 0 Z M 3.578125 -5.3125 C 4.875 -5.3125 5.890625 -4.296875 5.890625 -2.984375 C 5.890625 -1.640625 4.90625 -0.59375 3.625 -0.59375 C 2.28125 -0.59375 1.265625 -1.640625 1.265625 -2.984375 C 1.265625 -4.28125 2.296875 -5.3125 3.578125 -5.3125 Z M 3.578125 -5.3125 "/>
</g>
<g id="glyph-0-24">
<path d="M 1.40625 0 L 2.203125 0 L 2.203125 -5.1875 L 3.53125 -5.1875 L 3.53125 -5.90625 L 2.203125 -5.90625 L 2.203125 -7.984375 L 1.40625 -7.984375 L 1.40625 -5.90625 L 0.125 -5.90625 L 0.125 -5.1875 L 1.40625 -5.1875 Z M 1.40625 0 "/>
</g>
<g id="glyph-0-25">
<path d="M 0.828125 0 L 5.1875 0 L 5.1875 -0.71875 L 1.625 -0.71875 L 1.625 -3.671875 L 5.0625 -3.671875 L 5.0625 -4.390625 L 1.625 -4.390625 L 1.625 -7.25 L 5.1875 -7.25 L 5.1875 -7.984375 L 0.828125 -7.984375 Z M 0.828125 0 "/>
</g>
<g id="glyph-0-26">
<path d="M 0.6875 0 L 1.484375 0 L 1.484375 -3.25 C 1.484375 -3.90625 1.5625 -4.25 1.796875 -4.59375 C 2.109375 -5.046875 2.65625 -5.3125 3.28125 -5.3125 C 3.859375 -5.3125 4.390625 -5.078125 4.71875 -4.671875 C 5 -4.3125 5.109375 -3.875 5.109375 -3.09375 L 5.109375 0 L 5.90625 0 L 5.90625 -3.09375 C 5.90625 -4.09375 5.765625 -4.625 5.390625 -5.125 C 4.921875 -5.71875 4.203125 -6.046875 3.375 -6.046875 C 2.609375 -6.046875 1.96875 -5.75 1.484375 -5.140625 L 1.484375 -5.90625 L 0.6875 -5.90625 Z M 0.6875 0 "/>
</g>
<g id="glyph-0-27">
<path d="M 6.59375 -5.90625 L 5.78125 -5.90625 L 5.78125 -4.859375 C 5.1875 -5.671875 4.46875 -6.046875 3.484375 -6.046875 C 1.75 -6.046875 0.453125 -4.703125 0.453125 -2.921875 C 0.453125 -1.203125 1.796875 0.140625 3.53125 0.140625 C 4.59375 0.140625 5.328125 -0.296875 5.78125 -1.203125 L 5.78125 -0.796875 C 5.78125 -0.21875 5.71875 0.15625 5.546875 0.515625 C 5.234375 1.203125 4.53125 1.59375 3.609375 1.59375 C 2.953125 1.59375 2.453125 1.390625 2.03125 1 C 1.828125 0.8125 1.703125 0.640625 1.453125 0.1875 L 0.671875 0.1875 C 1.09375 1.5625 2.15625 2.328125 3.640625 2.328125 C 4.671875 2.328125 5.53125 1.9375 6.03125 1.265625 C 6.4375 0.71875 6.59375 0.09375 6.59375 -1.0625 Z M 3.515625 -5.3125 C 4.796875 -5.3125 5.78125 -4.3125 5.78125 -3.015625 C 5.78125 -1.640625 4.8125 -0.59375 3.53125 -0.59375 C 2.234375 -0.59375 1.265625 -1.625 1.265625 -2.984375 C 1.265625 -4.34375 2.21875 -5.3125 3.515625 -5.3125 Z M 3.515625 -5.3125 "/>
</g>
<g id="glyph-0-28">
<path d="M 0.6875 0 L 1.484375 0 L 1.484375 -1.015625 C 1.96875 -0.28125 2.8125 0.140625 3.796875 0.140625 C 5.578125 0.140625 6.90625 -1.1875 6.90625 -2.953125 C 6.90625 -4.703125 5.546875 -6.046875 3.796875 -6.046875 C 2.8125 -6.046875 1.984375 -5.640625 1.484375 -4.890625 L 1.484375 -7.984375 L 0.6875 -7.984375 Z M 3.78125 -5.3125 C 5.109375 -5.3125 6.09375 -4.3125 6.09375 -2.984375 C 6.09375 -1.625 5.09375 -0.59375 3.765625 -0.59375 C 3.109375 -0.59375 2.5625 -0.828125 2.109375 -1.296875 C 1.640625 -1.765625 1.421875 -2.3125 1.421875 -2.984375 C 1.421875 -4.28125 2.46875 -5.3125 3.78125 -5.3125 Z M 3.78125 -5.3125 "/>
</g>
<g id="glyph-0-29">
<path d="M 0.359375 1.34375 C 1 1.140625 1.375 0.890625 1.8125 0.453125 C 2.78125 -0.53125 3.375 -1.9375 3.375 -3.296875 C 3.375 -4.421875 3.015625 -5.46875 2.328125 -6.421875 C 1.75 -7.25 1.1875 -7.6875 0.359375 -7.984375 L 0.359375 -7.28125 C 0.90625 -6.953125 1.234375 -6.65625 1.546875 -6.25 C 2.1875 -5.390625 2.5625 -4.3125 2.5625 -3.296875 C 2.5625 -2.421875 2.296875 -1.515625 1.765625 -0.6875 C 1.390625 -0.09375 1 0.296875 0.359375 0.65625 Z M 0.359375 1.34375 "/>
</g>
<g id="glyph-0-30">
<path d="M 2.390625 0 L 3.421875 0 L 5.171875 -6.546875 L 6.9375 0 L 7.96875 0 L 10.25 -7.984375 L 9.4375 -7.984375 L 7.46875 -1.03125 L 5.5625 -7.984375 L 4.796875 -7.984375 L 2.890625 -1.03125 L 0.921875 -7.984375 L 0.109375 -7.984375 Z M 2.390625 0 "/>
</g>
<g id="glyph-0-31">
<path d="M 0.359375 0 L 5.421875 0 L 5.421875 -0.71875 L 1.4375 -0.71875 L 4 -3.171875 C 5.125 -4.25 5.46875 -4.84375 5.46875 -5.6875 C 5.46875 -7.09375 4.40625 -8.125 2.953125 -8.125 C 1.828125 -8.125 0.953125 -7.53125 0.59375 -6.5625 C 0.453125 -6.1875 0.421875 -5.953125 0.421875 -5.390625 L 1.203125 -5.390625 C 1.203125 -5.890625 1.28125 -6.203125 1.421875 -6.5 C 1.6875 -7.0625 2.25 -7.390625 2.9375 -7.390625 C 3.9375 -7.390625 4.671875 -6.6875 4.671875 -5.734375 C 4.671875 -5.265625 4.484375 -4.84375 4.109375 -4.390625 C 3.859375 -4.109375 3.859375 -4.109375 3.15625 -3.421875 L 0.359375 -0.71875 Z M 0.359375 0 "/>
</g>
<g id="glyph-0-32">
<path d="M 0.828125 -7.984375 L 0.828125 -3 C 0.828125 -1.96875 0.984375 -1.375 1.375 -0.84375 C 1.859375 -0.234375 2.65625 0.140625 3.53125 0.140625 C 4.421875 0.140625 5.21875 -0.234375 5.6875 -0.84375 C 6.09375 -1.375 6.25 -1.96875 6.25 -3 L 6.25 -7.984375 L 5.453125 -7.984375 L 5.453125 -3 C 5.453125 -2.28125 5.328125 -1.734375 5.078125 -1.34375 C 4.78125 -0.890625 4.1875 -0.59375 3.546875 -0.59375 C 2.875 -0.59375 2.28125 -0.890625 1.984375 -1.34375 C 1.734375 -1.734375 1.625 -2.28125 1.625 -3 L 1.625 -7.984375 Z M 0.828125 -7.984375 "/>
</g>
<g id="glyph-0-33">
<path d="M 0.828125 0 L 2.796875 0 C 3.859375 0 4.46875 -0.125 4.984375 -0.421875 C 5.53125 -0.765625 5.875 -1.46875 5.875 -2.28125 C 5.875 -3.265625 5.46875 -3.875 4.53125 -4.25 C 5.15625 -4.59375 5.421875 -5.125 5.421875 -5.90625 C 5.421875 -6.59375 5.15625 -7.1875 4.703125 -7.515625 C 4.25 -7.84375 3.65625 -7.984375 2.6875 -7.984375 L 0.828125 -7.984375 Z M 1.625 -0.71875 L 1.625 -3.828125 L 2.5625 -3.828125 C 3.515625 -3.828125 3.984375 -3.75 4.3125 -3.59375 C 4.796875 -3.359375 5.0625 -2.875 5.0625 -2.25 C 5.0625 -1.6875 4.8125 -1.203125 4.4375 -1.015625 C 4.0625 -0.8125 3.515625 -0.71875 2.703125 -0.71875 Z M 1.625 -4.546875 L 1.625 -7.25 L 2.578125 -7.25 C 3.40625 -7.25 3.84375 -7.1875 4.140625 -6.96875 C 4.421875 -6.796875 4.609375 -6.359375 4.609375 -5.890625 C 4.609375 -5.34375 4.390625 -4.9375 4 -4.75 C 3.65625 -4.59375 3.3125 -4.546875 2.59375 -4.546875 Z M 1.625 -4.546875 "/>
</g>
</g>
</defs>
<g fill="rgb(0%, 0%, 0%)" fill-opacity="1">
<use xlink:href="#glyph-0-0" x="73.864203" y="19.183111"/>
<use xlink:href="#glyph-0-1" x="80.25546" y="19.183111"/>
</g>
<g fill="rgb(0%, 0%, 0%)" fill-opacity="1">
<use xlink:href="#glyph-0-2" x="83.289148" y="19.183111"/>
<use xlink:href="#glyph-0-3" x="90.360556" y="19.183111"/>
<use xlink:href="#glyph-0-4" x="97.345595" y="19.183111"/>
<use xlink:href="#glyph-0-5" x="104.363022" y="19.183111"/>
<use xlink:href="#glyph-0-5" x="108.551887" y="19.183111"/>
</g>
<g fill="rgb(0%, 0%, 0%)" fill-opacity="1">
<use xlink:href="#glyph-0-6" x="115.731255" y="19.183111"/>
<use xlink:href="#glyph-0-7" x="121.712262" y="19.183111"/>
<use xlink:href="#glyph-0-8" x="127.693269" y="19.183111"/>
<use xlink:href="#glyph-0-7" x="133.674276" y="19.183111"/>
<use xlink:href="#glyph-0-8" x="139.655284" y="19.183111"/>
<use xlink:href="#glyph-0-9" x="145.636291" y="19.183111"/>
<use xlink:href="#glyph-0-10" x="151.617298" y="19.183111"/>
<use xlink:href="#glyph-0-11" x="157.598306" y="19.183111"/>
</g>
<path fill="none" stroke-width="0.39998" stroke-linecap="butt" stroke-linejoin="miter" stroke="rgb(0%, 0%, 0%)" stroke-opacity="1" stroke-miterlimit="10" d="M -0.00152789 -0.00194999 L 226.610626 -0.00194999 " transform="matrix(0.985939, 0, 0, -0.985939, 7.009319, 5.916046)"/>
<path fill="none" stroke-width="0.39998" stroke-linecap="butt" stroke-linejoin="miter" stroke="rgb(0%, 0%, 0%)" stroke-opacity="1" stroke-miterlimit="10" d="M -0.00152789 0.000486592 L 226.610626 0.000486592 " transform="matrix(0.985939, 0, 0, -0.985939, 7.009319, 24.504386)"/>
<path fill="none" stroke-width="0.39998" stroke-linecap="butt" stroke-linejoin="miter" stroke="rgb(0%, 0%, 0%)" stroke-opacity="1" stroke-miterlimit="10" d="M -0.00152789 0.000486592 L -0.00152789 18.855448 " transform="matrix(0.985939, 0, 0, -0.985939, 7.009319, 24.504386)"/>
<path fill="none" stroke-width="0.39998" stroke-linecap="butt" stroke-linejoin="miter" stroke="rgb(0%, 0%, 0%)" stroke-opacity="1" stroke-miterlimit="10" d="M 0.0000109955 0.000486592 L 0.0000109955 18.855448 " transform="matrix(0.985939, 0, 0, -0.985939, 230.433583, 24.504386)"/>
<g fill="rgb(0%, 0%, 0%)" fill-opacity="1">
<use xlink:href="#glyph-0-12" x="71.823573" y="37.771451"/>
<use xlink:href="#glyph-0-4" x="79.855829" y="37.771451"/>
</g>
<g fill="rgb(0%, 0%, 0%)" fill-opacity="1">
<use xlink:href="#glyph-0-13" x="86.657335" y="37.771451"/>
<use xlink:href="#glyph-0-14" x="92.638342" y="37.771451"/>
<use xlink:href="#glyph-0-3" x="94.797551" y="37.771451"/>
<use xlink:href="#glyph-0-4" x="101.78259" y="37.771451"/>
</g>
<g fill="rgb(0%, 0%, 0%)" fill-opacity="1">
<use xlink:href="#glyph-0-6" x="111.790521" y="37.771451"/>
<use xlink:href="#glyph-0-15" x="117.771528" y="37.771451"/>
<use xlink:href="#glyph-0-7" x="123.752536" y="37.771451"/>
<use xlink:href="#glyph-0-16" x="129.733543" y="37.771451"/>
<use xlink:href="#glyph-0-17" x="135.71455" y="37.771451"/>
<use xlink:href="#glyph-0-17" x="141.695557" y="37.771451"/>
<use xlink:href="#glyph-0-8" x="147.676565" y="37.771451"/>
<use xlink:href="#glyph-0-18" x="153.657572" y="37.771451"/>
<use xlink:href="#glyph-0-17" x="159.638579" y="37.771451"/>
</g>
<path fill="none" stroke-width="0.39998" stroke-linecap="butt" stroke-linejoin="miter" stroke="rgb(0%, 0%, 0%)" stroke-opacity="1" stroke-miterlimit="10" d="M -0.00152789 0.000486592 L 226.610626 0.000486592 " transform="matrix(0.985939, 0, 0, -0.985939, 7.009319, 24.504386)"/>
<path fill="none" stroke-width="0.39998" stroke-linecap="butt" stroke-linejoin="miter" stroke="rgb(0%, 0%, 0%)" stroke-opacity="1" stroke-miterlimit="10" d="M -0.00152789 -0.00103879 L 226.610626 -0.00103879 " transform="matrix(0.985939, 0, 0, -0.985939, 7.009319, 43.092726)"/>
<path fill="none" stroke-width="0.39998" stroke-linecap="butt" stroke-linejoin="miter" stroke="rgb(0%, 0%, 0%)" stroke-opacity="1" stroke-miterlimit="10" d="M -0.00152789 -0.00103879 L -0.00152789 18.853923 " transform="matrix(0.985939, 0, 0, -0.985939, 7.009319, 43.092726)"/>
<path fill="none" stroke-width="0.39998" stroke-linecap="butt" stroke-linejoin="miter" stroke="rgb(0%, 0%, 0%)" stroke-opacity="1" stroke-miterlimit="10" d="M 0.0000109955 -0.00103879 L 0.0000109955 18.853923 " transform="matrix(0.985939, 0, 0, -0.985939, 230.433583, 43.092726)"/>
<g fill="rgb(0%, 0%, 0%)" fill-opacity="1">
<use xlink:href="#glyph-0-19" x="30.081701" y="55.296921"/>
<use xlink:href="#glyph-0-20" x="35.069473" y="55.296921"/>
<use xlink:href="#glyph-0-21" x="43.058544" y="55.296921"/>
</g>
<g fill="rgb(0%, 0%, 0%)" fill-opacity="1">
<use xlink:href="#glyph-0-11" x="54.038118" y="55.296921"/>
<use xlink:href="#glyph-0-7" x="60.019126" y="55.296921"/>
<use xlink:href="#glyph-0-9" x="66.000133" y="55.296921"/>
<use xlink:href="#glyph-0-7" x="71.98114" y="55.296921"/>
</g>
<g fill="rgb(0%, 0%, 0%)" fill-opacity="1">
<use xlink:href="#glyph-0-22" x="80.952651" y="55.296921"/>
<use xlink:href="#glyph-0-12" x="84.936391" y="55.296921"/>
<use xlink:href="#glyph-0-23" x="92.968646" y="55.296921"/>
<use xlink:href="#glyph-0-24" x="100.342343" y="55.296921"/>
<use xlink:href="#glyph-0-23" x="104.002201" y="55.296921"/>
</g>
<g fill="rgb(0%, 0%, 0%)" fill-opacity="1">
<use xlink:href="#glyph-0-25" x="114.366401" y="55.296921"/>
<use xlink:href="#glyph-0-26" x="120.15308" y="55.296921"/>
<use xlink:href="#glyph-0-27" x="126.738666" y="55.296921"/>
<use xlink:href="#glyph-0-14" x="134.004402" y="55.296921"/>
<use xlink:href="#glyph-0-26" x="136.16361" y="55.296921"/>
<use xlink:href="#glyph-0-4" x="142.749196" y="55.296921"/>
<use xlink:href="#glyph-0-4" x="149.766623" y="55.296921"/>
<use xlink:href="#glyph-0-1" x="156.784051" y="55.296921"/>
</g>
<g fill="rgb(0%, 0%, 0%)" fill-opacity="1">
<use xlink:href="#glyph-0-14" x="160.24958" y="55.296921"/>
<use xlink:href="#glyph-0-26" x="162.408789" y="55.296921"/>
<use xlink:href="#glyph-0-27" x="168.994374" y="55.296921"/>
</g>
<g fill="rgb(0%, 0%, 0%)" fill-opacity="1">
<use xlink:href="#glyph-0-19" x="179.250614" y="55.296921"/>
<use xlink:href="#glyph-0-23" x="184.238386" y="55.296921"/>
</g>
<g fill="rgb(0%, 0%, 0%)" fill-opacity="1">
<use xlink:href="#glyph-0-28" x="191.828003" y="55.296921"/>
<use xlink:href="#glyph-0-5" x="199.190904" y="55.296921"/>
<use xlink:href="#glyph-0-29" x="203.379768" y="55.296921"/>
</g>
<path fill="none" stroke-width="0.39998" stroke-linecap="butt" stroke-linejoin="miter" stroke="rgb(0%, 0%, 0%)" stroke-opacity="1" stroke-miterlimit="10" d="M -0.00152789 -0.00103879 L 226.610626 -0.00103879 " transform="matrix(0.985939, 0, 0, -0.985939, 7.009319, 43.092726)"/>
<path fill="none" stroke-width="0.39998" stroke-linecap="butt" stroke-linejoin="miter" stroke="rgb(0%, 0%, 0%)" stroke-opacity="1" stroke-miterlimit="10" d="M -0.00152789 0.00139779 L 226.610626 0.00139779 " transform="matrix(0.985939, 0, 0, -0.985939, 7.009319, 61.681066)"/>
<path fill="none" stroke-width="0.39998" stroke-linecap="butt" stroke-linejoin="miter" stroke="rgb(0%, 0%, 0%)" stroke-opacity="1" stroke-miterlimit="10" d="M -0.00152789 0.00139779 L -0.00152789 18.852397 " transform="matrix(0.985939, 0, 0, -0.985939, 7.009319, 61.681066)"/>
<path fill="none" stroke-width="0.39998" stroke-linecap="butt" stroke-linejoin="miter" stroke="rgb(0%, 0%, 0%)" stroke-opacity="1" stroke-miterlimit="10" d="M 0.0000109955 0.00139779 L 0.0000109955 18.852397 " transform="matrix(0.985939, 0, 0, -0.985939, 230.433583, 61.681066)"/>
<g fill="rgb(0%, 0%, 0%)" fill-opacity="1">
<use xlink:href="#glyph-0-30" x="79.505131" y="73.885261"/>
</g>
<g fill="rgb(0%, 0%, 0%)" fill-opacity="1">
<use xlink:href="#glyph-0-20" x="89.243161" y="73.885261"/>
<use xlink:href="#glyph-0-21" x="97.232232" y="73.885261"/>
</g>
<g fill="rgb(0%, 0%, 0%)" fill-opacity="1">
<use xlink:href="#glyph-0-9" x="108.211807" y="73.885261"/>
<use xlink:href="#glyph-0-9" x="114.192814" y="73.885261"/>
<use xlink:href="#glyph-0-31" x="120.173821" y="73.885261"/>
</g>
<g fill="rgb(0%, 0%, 0%)" fill-opacity="1">
<use xlink:href="#glyph-0-22" x="129.145332" y="73.885261"/>
<use xlink:href="#glyph-0-32" x="133.129072" y="73.885261"/>
</g>
<g fill="rgb(0%, 0%, 0%)" fill-opacity="1">
<use xlink:href="#glyph-0-20" x="139.768637" y="73.885261"/>
<use xlink:href="#glyph-0-33" x="147.757709" y="73.885261"/>
<use xlink:href="#glyph-0-29" x="153.954637" y="73.885261"/>
</g>
<path fill="none" stroke-width="0.39998" stroke-linecap="butt" stroke-linejoin="miter" stroke="rgb(0%, 0%, 0%)" stroke-opacity="1" stroke-miterlimit="10" d="M -0.00152789 0.00139779 L 226.610626 0.00139779 " transform="matrix(0.985939, 0, 0, -0.985939, 7.009319, 61.681066)"/>
<path fill="none" stroke-width="0.39998" stroke-linecap="butt" stroke-linejoin="miter" stroke="rgb(0%, 0%, 0%)" stroke-opacity="1" stroke-miterlimit="10" d="M -0.00152789 -0.000127589 L 226.610626 -0.000127589 " transform="matrix(0.985939, 0, 0, -0.985939, 7.009319, 80.269405)"/>
<path fill="none" stroke-width="0.39998" stroke-linecap="butt" stroke-linejoin="miter" stroke="rgb(0%, 0%, 0%)" stroke-opacity="1" stroke-miterlimit="10" d="M -0.00152789 -0.000127589 L -0.00152789 18.854834 " transform="matrix(0.985939, 0, 0, -0.985939, 7.009319, 80.269405)"/>
<path fill="none" stroke-width="0.39998" stroke-linecap="butt" stroke-linejoin="miter" stroke="rgb(0%, 0%, 0%)" stroke-opacity="1" stroke-miterlimit="10" d="M 0.0000109955 -0.000127589 L 0.0000109955 18.854834 " transform="matrix(0.985939, 0, 0, -0.985939, 230.433583, 80.269405)"/>
</svg>
